<?xml version="1.0" encoding="UTF-8"?>
<svg id="Calque_1" data-name="Calque 1" xmlns="http://www.w3.org/2000/svg" version="1.1" xmlns:xlink="http://www.w3.org/1999/xlink" viewBox="0 0 695.27 264.37">
  <defs>
    <style>
      .cls-1 {
        fill: #5e32ec;
      }

      .cls-1, .cls-2, .cls-3, .cls-4 {
        stroke-width: 0px;
      }

      .cls-2 {
        display: none;
      }

      .cls-2, .cls-4 {
        fill: #361b8b;
      }

      .cls-3 {
        fill: none;
      }

      .cls-5 {
        clip-path: url(#clippath);
      }
    </style>
    <clipPath id="clippath">
      <rect class="cls-3" width="695.27" height="264.37"/>
    </clipPath>
  </defs>
  <rect class="cls-2" x="12.75" y="8.42" width="683.13" height="256.14"/>
  <g class="cls-5">
    <path class="cls-4" d="M632.67,41.83l-14.94,144.94,19.89,2.05,14.94-144.94-19.89-2.05ZM654.62,31.97l-12.72.91,1.43,19.95,12.72-.91-1.43-19.95ZM675.1,52.06c-.17-2.42-.45-4.92-1.02-7.23-.57-2.31-1.6-5.12-3.74-7.59-4.8-5.53-11.59-5.56-15.73-5.27l1.43,19.95c.67-.05,1.13-.05,1.42-.04.29.01.32.04.16,0-.17-.04-.55-.15-1.04-.43-.5-.29-.96-.67-1.34-1.1-.71-.82-.73-1.38-.57-.74.07.29.16.73.25,1.41.09.67.17,1.48.24,2.47l19.95-1.43ZM669.78,119.84c4.67-45.33,5.94-59.18,5.33-67.78l-19.95,1.43c.45,6.36-.48,17.73-5.27,64.31l19.89,2.05ZM660.51,181.91c3.18-9.07,4.72-18.05,9.27-62.06l-19.89-2.05c-4.63,44.87-6.02,51.14-8.24,57.49l18.87,6.62ZM641.1,196.85c3.83-.27,8.25-1.12,12.16-4.18,3.77-2.95,5.75-6.95,7.12-10.42l-18.61-7.32c-.46,1.16-.78,1.77-.97,2.06-.16.25-.13.13.14-.08.64-.5.88-.17-1.27-.02l1.43,19.95ZM628.39,197.76l12.72-.91-1.43-19.95-12.72.91,1.43,19.95ZM657.29,189.47c-2.03,4.56-3.95,6.57-6.04,7.81-2.4,1.42-6.23,2.55-13.41,3.07l1.43,19.95c8.28-.59,15.8-2.03,22.18-5.81,6.68-3.96,10.97-9.79,14.12-16.88l-18.27-8.13ZM669.9,117.38c-5.44,53.94-8.15,62.32-12.57,72l18.2,8.3c5.98-13.11,8.86-24.69,14.27-78.3l-19.9-2.01ZM675.09,44.79c.69,9.64-.43,25.98-5.18,72.58l19.9,2.03c4.67-45.81,6.08-64.24,5.23-76.04l-19.95,1.43ZM658.93,29.15c9.5-.68,11.98,1.06,12.75,1.84,1.19,1.21,2.73,4.37,3.41,13.79l19.95-1.43c-.68-9.52-2.34-19.55-9.12-26.42-7.2-7.29-17.46-8.53-28.41-7.74l1.43,19.95ZM626.01,31.51l32.92-2.36-1.43-19.95-32.92,2.36,1.43,19.95ZM615.59,213.7l19.66-191.14-19.9-2.05-19.66,191.14,19.9,2.05ZM637.84,200.35l-32.92,2.36,1.43,19.95,32.92-2.36-1.43-19.95ZM562.66,46.34l-6.94,67.67,19.9,2.04,6.94-67.67-19.9-2.04ZM584.37,36.5l-12.47.89,1.43,19.95,12.47-.89-1.43-19.95ZM603.93,54.14c-.28-3.89-1.31-9.05-5.29-12.99-4.26-4.22-9.75-4.98-14.27-4.66l1.43,19.95c.71-.05.78.04.47-.05-.18-.05-.45-.15-.77-.33-.33-.18-.65-.42-.93-.7-.59-.58-.77-1.08-.78-1.11,0,0,.03.09.07.32.04.23.09.55.12.99l19.95-1.43ZM602.07,79.74c1.7-14.2,2.21-20.72,1.86-25.59l-19.95,1.43c.19,2.61-.02,7.17-1.77,21.79l19.86,2.38ZM575.36,124.36c3.67-.26,7.78-1.01,11.61-3.28,4.02-2.38,6.74-5.84,8.64-9.83,3.38-7.08,4.91-17.66,6.46-31.61l-19.88-2.21c-1.65,14.86-3,21.77-4.64,25.21-.32.68-.57,1-.67,1.12-.09.1-.11.11-.11.11-.05.03-.65.37-2.84.53l1.43,19.95ZM566.39,125l8.98-.64-1.43-19.95-8.98.64,1.43,19.95ZM590.71,212.74l.07,1,19.95-1.43-.07-1-19.95,1.43ZM590.02,206.53c.15,2.12.33,4.75.86,7.45l19.62-3.89c-.25-1.26-.36-2.62-.53-4.98l-19.95,1.43ZM591.13,138.02c.57,7.96.21,22.87-.29,37.21-.24,6.95-.52,13.89-.69,19.23-.17,5.11-.29,9.79-.13,12.07l19.95-1.43c-.07-.96-.02-4.32.17-9.97.18-5.43.44-11.98.69-19.2.48-13.99.91-30.09.25-39.33l-19.95,1.43ZM591.29,133.78c-1.19-.54-1.39-1.25-1.16-.76.27.57.79,2.06,1,5l19.95-1.43c-.6-8.38-3.39-17.32-11.49-21.01l-8.3,18.2ZM585.68,122.16l-.16,1.26,19.84,2.51.16-1.26-19.84-2.51ZM595.76,108.58c-1.95,4.27-3.58,5.38-4.53,5.84l8.73,17.99c6.32-3.07,10.74-8.41,13.99-15.53l-18.2-8.3ZM602.12,79.35c-1.73,16.7-3.75,23.61-6.33,29.16l18.13,8.44c3.94-8.46,6.26-17.9,8.09-35.54l-19.89-2.06ZM603.94,47.38c.39,5.52.12,13.54-1.82,31.96l19.89,2.09c1.94-18.45,2.41-28.03,1.88-35.48l-19.95,1.43ZM591.95,33.95c5.97-.43,7.86.8,8.61,1.52,1.03,1,2.8,3.86,3.37,11.9l19.95-1.43c-.69-9.66-3.03-18.66-9.41-24.84-6.66-6.45-15.46-7.72-23.96-7.11l1.43,19.95ZM556.04,36.52l35.91-2.57-1.43-19.95-35.91,2.57,1.43,19.95ZM545.62,218.71l19.66-191.14-19.9-2.05-19.66,191.14,19.9,2.05ZM554.66,206.3l-19.7,1.41,1.43,19.95,19.7-1.41-1.43-19.95ZM553.68,134.46l-8.25,80.8,19.9,2.03,8.25-80.8-19.9-2.03ZM572.39,124.83l-9.48.68,1.43,19.95,9.48-.68-1.43-19.95ZM590.9,141.8c-.26-3.62-.99-9.39-5.46-13.37-4.64-4.13-10.46-3.79-13.05-3.6l1.43,19.95c1.04-.07,1.21-.01.97-.05-.39-.07-1.52-.35-2.65-1.36-1.08-.96-1.41-1.92-1.43-1.99-.01-.03.03.08.08.41.05.33.11.79.16,1.44l19.95-1.43ZM589.13,208.09c-.41-5.67.26-17.31.98-30.67.69-12.66,1.42-26.74.79-35.62l-19.95,1.43c.52,7.32-.09,19.91-.81,33.11-.68,12.49-1.48,25.9-.96,33.19l19.95-1.43ZM589.55,210.66c-.09-.21-.14-.36-.19-.6-.06-.31-.16-.88-.23-1.97l-19.95,1.43c.25,3.47.76,6.07,1.9,8.8l18.47-7.66ZM600.04,203.05l-20.45,1.46,1.43,19.95,20.45-1.46-1.43-19.95ZM498.27,156.95l16.46-1.18-1.43-19.95-16.46,1.18,1.43,19.95ZM505.2,50.41c-1.18,7.44-2.61,14.56-17.47,94.74l19.67,3.64c14.79-79.84,16.32-87.47,17.56-95.24l-19.75-3.14ZM515.85,41.9l-1.5.11,1.43,19.95,1.5-.11-1.43-19.95ZM524.01,146.09c2.36-79.04,2.34-86.59,2.55-93.94l-19.99-.56c-.22,7.72-.19,14.71-2.55,93.91l19.99.6ZM525.16,27.78l-3.95,190.02,20,.42,3.95-190.02-20-.42ZM502.21,40.37l33.66-2.41-1.43-19.95-33.66,2.41,1.43,19.95ZM474.71,224.62l36.61-192.35-19.65-3.74-36.61,192.35,19.65,3.74ZM484.62,211.31l-20.45,1.46,1.43,19.95,20.45-1.46-1.43-19.95ZM484.78,167.24l-9.29,52.3,19.69,3.5,9.29-52.3-19.69-3.5ZM512.11,157.71l-18.2,1.3,1.43,19.95,18.2-1.3-1.43-19.95ZM521.26,219.73l1.56-51.74-19.99-.6-1.56,51.74,19.99.6ZM530.5,208.03l-19.95,1.43,1.43,19.95,19.95-1.43-1.43-19.95ZM435.73,214.56c3.99-.29,8.57-1.26,12.49-4.57,3.83-3.22,5.66-7.52,6.78-11.34l-19.18-5.67c-.33,1.11-.59,1.67-.72,1.91-.11.2-.05.04.23-.2.3-.25.53-.33.49-.31-.11.04-.54.15-1.52.22l1.43,19.95ZM415.69,193.69c.24,3.4.64,9.12,3.57,13.65,1.75,2.7,4.28,4.85,7.53,6.1,3.02,1.16,6.13,1.33,8.94,1.13l-1.43-19.95c-1.06.08-.98-.1-.35.14.35.13.77.36,1.19.7.42.34.71.7.89.98.31.48.22.59.04-.27-.17-.85-.31-2.05-.44-3.91l-19.95,1.43ZM421.19,124.89c-2.43,23.7-3.94,38.77-4.78,48.81-.83,9.94-1.04,15.52-.73,19.98l19.95-1.43c-.2-2.77-.12-6.98.71-16.9.81-9.81,2.3-24.66,4.74-48.43l-19.9-2.04ZM430.9,58.25c-3.42,9.64-4.78,17.68-9.71,66.66l19.9,2c5.03-49.98,6.24-55.15,8.66-61.98l-18.85-6.69ZM450.01,42.85c-4.16.3-8.61,1.44-12.42,4.67-3.69,3.13-5.62,7.25-6.82,11.1l19.1,5.94c.64-2.05,1.04-2.11.66-1.78-.2.17-.36.22-.33.21.08-.03.43-.13,1.23-.19l-1.43-19.95ZM469.98,62.73c-.34-4.75-1.28-10.67-5.33-14.97-4.67-4.96-10.79-5.18-14.64-4.9l1.43,19.95c.45-.03.72-.03.87-.02.14,0,.08.02-.11-.03-.21-.05-.56-.17-.97-.4-.43-.24-.81-.55-1.14-.89-.63-.67-.68-1.13-.54-.67.15.49.35,1.51.49,3.36l19.95-1.43ZM465.17,130.69c4.76-48.06,5.4-59.67,4.81-67.96l-19.95,1.43c.44,6.17.08,15.69-4.76,64.56l19.9,1.97ZM454.96,198.81c2.99-9.54,4.86-16.89,10.21-68.07l-19.89-2.08c-5.36,51.34-7.09,56.79-9.4,64.17l19.08,5.98ZM451.38,206.73c-2.16,4.87-4.24,7.1-6.45,8.46-2.44,1.5-6.24,2.67-13.19,3.16l1.43,19.95c8.26-.59,15.8-2.12,22.24-6.08,6.67-4.1,11.02-10.09,14.26-17.39l-18.28-8.11ZM464.3,131.82c-5.66,54.48-8.49,64.71-12.95,74.98l18.35,7.96c5.87-13.52,8.88-26.78,14.5-80.88l-19.89-2.07ZM469.51,56.24c.71,9.92-.12,27.09-5.21,75.56l19.89,2.09c5.05-48,6.13-67.05,5.27-79.08l-19.95,1.43ZM453.61,40.59c9.34-.67,11.75,1.06,12.5,1.83,1.19,1.22,2.73,4.4,3.4,13.83l19.95-1.43c-.68-9.53-2.34-19.52-9.06-26.39-7.16-7.31-17.37-8.57-28.22-7.79l1.43,19.95ZM434.25,52.13c2.04-4.71,4.07-6.95,6.27-8.32,2.42-1.51,6.21-2.72,13.09-3.21l-1.43-19.95c-8.33.6-15.87,2.2-22.27,6.21-6.61,4.14-10.89,10.12-14.01,17.31l18.35,7.96ZM421.56,123.84c5.38-51.46,7.99-61.13,12.65-71.64l-18.28-8.11c-6.13,13.83-8.93,26.6-14.26,77.67l19.89,2.08ZM416.06,202.43c-.71-9.91.12-27.07,5.5-78.6l-19.89-2.08c-5.33,51-6.42,70.07-5.56,82.1l19.95-1.43ZM431.74,218.35c-9.35.67-11.6-1-12.27-1.68-1.14-1.16-2.7-4.35-3.41-14.24l-19.95,1.43c.7,9.82,2.35,19.93,9.05,26.79,7.18,7.34,17.4,8.41,28,7.65l-1.43-19.95ZM360.75,60.03l-6.53,62.88,19.89,2.07,6.53-62.88-19.89-2.07ZM382.45,50.19l-12.47.89,1.43,19.95,12.47-.89-1.43-19.95ZM401.83,68.86c-.24-3.42-.88-8.71-4.32-12.92-4.16-5.09-10.07-6.1-15.06-5.75l1.43,19.95c.79-.06.73.06.21-.11-.28-.09-.66-.26-1.06-.53-.41-.27-.74-.6-1.01-.92-.51-.62-.55-1.02-.46-.68.1.35.23,1.07.32,2.37l19.95-1.43ZM399.78,98.33c1.9-18.09,2.38-24.9,2.06-29.48l-19.95,1.43c.17,2.41-.02,7.17-2,25.96l19.89,2.09ZM376.85,133.05c3.01-.22,6.5-.81,9.83-2.63,3.54-1.93,6.06-4.79,7.84-8.14,3.08-5.83,4.28-14.13,5.26-24l-19.9-1.99c-.5,5.01-1,8.76-1.56,11.62-.58,2.91-1.13,4.35-1.48,5.02-.24.45-.18.18.25-.06.22-.12-.06.12-1.66.23l1.43,19.95ZM364.88,133.91l11.97-.86-1.43-19.95-11.97.86,1.43,19.95ZM352.26,141.12l-6.74,66.9,19.9,2.01,6.74-66.9-19.9-2.01ZM374.46,131.22l-12.97.93,1.43,19.95,12.97-.93-1.43-19.95ZM394.35,149.85c-.35-4.85-1.47-10.94-6.28-15.02-4.87-4.13-10.81-3.81-13.6-3.61l1.43,19.95c.51-.04.86-.05,1.1-.04.24,0,.29.02.2,0-.09-.02-.38-.07-.77-.24-.41-.17-.86-.44-1.3-.8-.43-.37-.73-.74-.92-1.03-.18-.28-.23-.44-.21-.38.02.06.09.28.17.73.08.45.16,1.06.22,1.87l19.95-1.43ZM392.71,178.33c1.5-13.83,2.06-22.47,1.63-28.48l-19.95,1.43c.28,3.97-.05,10.93-1.57,24.89l19.88,2.16ZM370.4,217.98c2.93-.21,6.51-.89,9.9-3.15,3.44-2.29,5.65-5.51,7.16-8.92,2.72-6.17,4.07-15.35,5.27-27.7l-19.91-1.94c-1.25,12.89-2.46,18.81-3.67,21.57-.46,1.05-.57.76.06.34.57-.38.82-.23-.24-.15l1.43,19.95ZM356.18,219l14.21-1.02-1.43-19.95-14.21,1.02,1.43,19.95ZM392.86,176.09c-1.94,19.79-4.97,30.45-8.66,36.24-1.68,2.63-3.43,4.13-5.31,5.11-2,1.04-4.69,1.78-8.62,2.06l1.43,19.95c5.67-.41,11.26-1.58,16.43-4.26,5.27-2.74,9.55-6.78,12.94-12.09,6.45-10.1,9.74-24.96,11.71-45.05l-19.9-1.95ZM394.97,144.54c.37,5.18-.08,13.89-2.09,31.38l19.87,2.29c2-17.38,2.69-27.81,2.17-35.1l-19.95,1.43ZM391.62,138.82c2.5,1.58,2.67,1.93,2.67,1.93,0,0,0,0,.01.02,0,.01.02.04.04.08.03.08.1.24.17.51.16.57.34,1.55.46,3.19l19.95-1.43c-.35-4.9-1.32-9.47-4-13.48-2.59-3.88-6.13-6.16-8.61-7.73l-10.68,16.91ZM387.15,127.91l-.14,1.51,19.91,1.87.14-1.51-19.91-1.87ZM399.7,96.67c-.98,10.22-2.27,15.53-3.63,18.61-1.09,2.48-2.28,3.71-4.63,5.32l11.32,16.49c4.58-3.15,8.66-7.05,11.61-13.76,2.69-6.1,4.2-14.03,5.23-24.76l-19.91-1.91ZM401.76,60.84c.43,6.02.19,14.55-2.05,35.73l19.89,2.1c2.24-21.25,2.68-31.32,2.11-39.26l-19.95,1.43ZM389.09,48.47c6.86-.49,8.9.63,9.57,1.2.69.59,2.5,2.82,3.1,11.17l19.95-1.43c-.71-9.85-3.09-18.97-10.01-24.92-6.94-5.96-15.93-6.56-24.03-5.98l1.43,19.95ZM353.93,50.98l35.16-2.52-1.43-19.95-35.16,2.52,1.43,19.95ZM343.51,233.17l19.66-191.14-19.9-2.05-19.66,191.14,19.9,2.05ZM370.26,219.5l-37.4,2.68,1.43,19.95,37.4-2.68-1.43-19.95ZM289.16,66.41l-14.94,144.94,19.89,2.05,14.94-144.94-19.89-2.05ZM311.11,56.55l-12.72.91,1.43,19.95,12.72-.91-1.43-19.95ZM331.6,76.64c-.17-2.42-.45-4.92-1.02-7.23-.57-2.31-1.6-5.12-3.74-7.59-4.8-5.53-11.59-5.56-15.73-5.27l1.43,19.95c.67-.05,1.13-.05,1.42-.04.29.01.32.04.16,0-.17-.04-.55-.15-1.04-.43-.5-.29-.96-.67-1.34-1.1-.71-.82-.73-1.38-.57-.74.07.29.16.73.25,1.41.09.67.17,1.48.24,2.47l19.95-1.43ZM326.27,144.43c4.67-45.33,5.94-59.18,5.33-67.78l-19.95,1.43c.45,6.36-.48,17.73-5.27,64.31l19.89,2.05ZM317.01,206.49c3.18-9.07,4.72-18.05,9.27-62.06l-19.89-2.05c-4.63,44.87-6.01,51.14-8.24,57.49l18.87,6.62ZM297.6,221.44c3.83-.27,8.25-1.12,12.16-4.18,3.77-2.95,5.75-6.95,7.12-10.42l-18.61-7.32c-.46,1.16-.78,1.77-.97,2.06-.16.25-.13.13.14-.08.64-.5.88-.17-1.27-.02l1.43,19.95ZM284.88,222.35l12.72-.91-1.43-19.95-12.72.91,1.43,19.95ZM313.79,214.06c-2.03,4.56-3.95,6.57-6.04,7.81-2.4,1.42-6.23,2.55-13.41,3.07l1.43,19.95c8.28-.59,15.8-2.03,22.18-5.81,6.68-3.96,10.97-9.79,14.12-16.88l-18.27-8.13ZM326.4,141.97c-5.44,53.94-8.15,62.32-12.57,72l18.2,8.3c5.98-13.11,8.86-24.69,14.27-78.3l-19.9-2.01ZM331.58,69.37c.69,9.64-.43,25.98-5.18,72.58l19.9,2.03c4.67-45.81,6.08-64.24,5.23-76.04l-19.95,1.43ZM315.42,53.74c9.5-.68,11.98,1.06,12.75,1.84,1.19,1.21,2.73,4.37,3.41,13.79l19.95-1.43c-.68-9.52-2.34-19.55-9.12-26.42-7.2-7.29-17.46-8.53-28.41-7.74l1.43,19.95ZM282.51,56.09l32.92-2.36-1.43-19.95-32.92,2.36,1.43,19.95ZM272.08,238.28l19.66-191.14-19.9-2.05-19.66,191.14,19.9,2.05ZM294.34,224.93l-32.92,2.36,1.43,19.95,32.92-2.36-1.43-19.95ZM226.31,229.55c3.99-.29,8.57-1.26,12.49-4.57,3.83-3.22,5.66-7.52,6.78-11.34l-19.18-5.67c-.33,1.11-.59,1.67-.72,1.91-.11.2-.05.04.23-.2.3-.25.53-.33.49-.31-.11.04-.54.15-1.52.22l1.43,19.95ZM206.27,208.67c.24,3.4.64,9.12,3.57,13.65,1.75,2.7,4.28,4.85,7.53,6.1,3.02,1.16,6.13,1.33,8.94,1.13l-1.43-19.95c-1.06.08-.98-.1-.35.14.35.13.77.36,1.19.7.42.34.71.7.89.98.31.48.22.59.04-.27-.17-.85-.31-2.05-.44-3.91l-19.95,1.43ZM211.78,139.88c-2.43,23.7-3.94,38.77-4.78,48.81-.83,9.94-1.04,15.52-.73,19.98l19.95-1.43c-.2-2.77-.12-6.98.71-16.9.81-9.81,2.3-24.66,4.74-48.43l-19.9-2.04ZM221.48,73.24c-3.42,9.64-4.78,17.68-9.71,66.66l19.9,2c5.03-49.98,6.24-55.15,8.66-61.98l-18.85-6.69ZM240.59,57.84c-4.16.3-8.61,1.44-12.42,4.67-3.69,3.13-5.62,7.25-6.82,11.1l19.1,5.94c.64-2.05,1.04-2.11.66-1.78-.2.17-.36.22-.33.21.08-.03.43-.13,1.23-.19l-1.43-19.95ZM260.56,77.71c-.34-4.75-1.28-10.67-5.33-14.97-4.67-4.96-10.79-5.18-14.64-4.9l1.43,19.95c.45-.03.72-.03.87-.02.14,0,.08.02-.11-.03-.21-.05-.56-.17-.97-.4-.43-.24-.81-.55-1.14-.89-.63-.67-.68-1.13-.54-.67.15.49.35,1.51.49,3.36l19.95-1.43ZM255.76,145.68c4.76-48.06,5.4-59.67,4.81-67.96l-19.95,1.43c.44,6.17.08,15.69-4.76,64.56l19.9,1.97ZM245.54,213.8c2.99-9.54,4.86-16.89,10.21-68.07l-19.89-2.08c-5.36,51.34-7.09,56.79-9.4,64.17l19.08,5.98ZM241.96,221.71c-2.16,4.87-4.24,7.1-6.45,8.46-2.44,1.5-6.24,2.67-13.19,3.16l1.43,19.95c8.26-.59,15.8-2.12,22.24-6.08,6.67-4.1,11.02-10.09,14.26-17.39l-18.28-8.11ZM254.88,146.81c-5.66,54.48-8.49,64.71-12.95,74.98l18.35,7.96c5.87-13.52,8.88-26.78,14.5-80.88l-19.89-2.07ZM260.1,71.23c.71,9.92-.12,27.09-5.21,75.56l19.89,2.09c5.05-48,6.13-67.05,5.27-79.08l-19.95,1.43ZM244.19,55.58c9.34-.67,11.75,1.06,12.5,1.83,1.19,1.22,2.73,4.4,3.4,13.83l19.95-1.43c-.68-9.53-2.34-19.52-9.06-26.39-7.16-7.31-17.37-8.57-28.22-7.79l1.43,19.95ZM224.83,67.11c2.04-4.71,4.07-6.95,6.27-8.32,2.42-1.51,6.21-2.72,13.09-3.21l-1.43-19.95c-8.33.6-15.87,2.2-22.27,6.21-6.61,4.14-10.89,10.12-14.01,17.31l18.35,7.96ZM212.15,138.82c5.38-51.46,7.99-61.13,12.65-71.64l-18.28-8.11c-6.13,13.83-8.93,26.6-14.26,77.67l19.89,2.08ZM206.65,217.42c-.71-9.91.12-27.07,5.5-78.6l-19.89-2.08c-5.33,51-6.42,70.07-5.56,82.1l19.95-1.43ZM222.32,233.34c-9.35.67-11.6-1-12.27-1.68-1.14-1.16-2.7-4.35-3.41-14.24l-19.95,1.43c.7,9.82,2.35,19.93,9.05,26.79,7.18,7.34,17.4,8.41,28,7.65l-1.43-19.95ZM157.81,234.45c3.99-.29,8.57-1.26,12.49-4.57,3.83-3.22,5.66-7.52,6.78-11.34l-19.18-5.67c-.33,1.11-.59,1.67-.72,1.91-.11.2-.05.04.23-.2.3-.25.53-.33.49-.31-.11.04-.54.15-1.52.22l1.43,19.95ZM137.77,213.58c.24,3.4.64,9.12,3.57,13.65,1.75,2.7,4.28,4.85,7.53,6.1,3.02,1.16,6.13,1.33,8.94,1.13l-1.43-19.95c-1.06.08-.98-.1-.35.14.35.13.77.36,1.19.7.42.34.71.7.89.98.31.48.22.59.04-.27-.17-.85-.31-2.05-.44-3.91l-19.95,1.43ZM143.27,144.78c-2.43,23.7-3.94,38.77-4.78,48.81-.83,9.94-1.04,15.52-.73,19.98l19.95-1.43c-.2-2.77-.12-6.98.71-16.9.81-9.81,2.3-24.66,4.74-48.43l-19.9-2.04ZM152.97,78.14c-3.42,9.64-4.78,17.68-9.71,66.66l19.9,2c5.03-49.98,6.24-55.15,8.66-61.98l-18.85-6.69ZM172.09,62.74c-4.16.3-8.61,1.44-12.42,4.67-3.69,3.13-5.62,7.25-6.82,11.1l19.1,5.94c.64-2.05,1.04-2.11.66-1.78-.2.17-.36.22-.33.21.08-.03.43-.13,1.23-.19l-1.43-19.95ZM192.06,82.62c-.34-4.75-1.28-10.67-5.33-14.97-4.67-4.96-10.79-5.18-14.64-4.9l1.43,19.95c.45-.03.72-.03.87-.02.14,0,.08.02-.11-.03-.21-.05-.56-.17-.97-.4-.43-.24-.81-.55-1.14-.89-.63-.67-.68-1.13-.54-.67.15.49.35,1.51.49,3.36l19.95-1.43ZM187.25,150.58c4.76-48.06,5.4-59.67,4.81-67.96l-19.95,1.43c.44,6.17.08,15.69-4.76,64.56l19.9,1.97ZM177.04,218.7c2.99-9.54,4.86-16.89,10.21-68.07l-19.89-2.08c-5.36,51.34-7.09,56.79-9.4,64.17l19.08,5.98ZM173.46,226.62c-2.16,4.87-4.24,7.1-6.45,8.46-2.44,1.5-6.24,2.67-13.19,3.16l1.43,19.95c8.26-.59,15.8-2.12,22.24-6.08,6.67-4.1,11.02-10.09,14.26-17.39l-18.28-8.11ZM186.38,151.71c-5.66,54.48-8.49,64.71-12.95,74.98l18.35,7.96c5.87-13.52,8.88-26.78,14.5-80.88l-19.89-2.07ZM191.59,76.13c.71,9.92-.12,27.09-5.21,75.56l19.89,2.09c5.05-48,6.13-67.05,5.27-79.08l-19.95,1.43ZM175.68,60.48c9.34-.67,11.75,1.06,12.5,1.83,1.19,1.22,2.73,4.4,3.4,13.83l19.95-1.43c-.68-9.53-2.34-19.52-9.06-26.39-7.16-7.31-17.37-8.57-28.22-7.79l1.43,19.95ZM156.32,72.02c2.04-4.71,4.07-6.95,6.27-8.32,2.42-1.51,6.21-2.72,13.09-3.21l-1.43-19.95c-8.33.6-15.87,2.2-22.27,6.21-6.61,4.14-10.89,10.12-14.01,17.31l18.35,7.96ZM143.64,143.73c5.38-51.46,7.99-61.13,12.65-71.64l-18.28-8.11c-6.13,13.83-8.93,26.6-14.26,77.67l19.89,2.08ZM138.14,222.32c-.71-9.91.12-27.07,5.5-78.6l-19.89-2.08c-5.33,51-6.42,70.07-5.56,82.1l19.95-1.43ZM153.82,238.24c-9.35.67-11.6-1-12.27-1.68-1.14-1.16-2.7-4.35-3.41-14.24l-19.95,1.43c.7,9.82,2.35,19.93,9.05,26.79,7.18,7.34,17.4,8.41,28,7.65l-1.43-19.95ZM126.72,55.48l-19.66,191.14,19.9,2.05,19.66-191.14-19.9-2.05ZM105.21,68.78l32.17-2.3-1.43-19.95-32.17,2.3,1.43,19.95ZM88.1,172.69c1.6-10.82,4.77-22.55,26.12-111.55l-19.45-4.67c-21.11,87.98-24.68,101.3-26.46,113.28l19.78,2.93ZM77.67,181.28l1.25-.09-1.43-19.95-1.25.09,1.43,19.95ZM64.08,61.3c2.71,87.18,3.31,98.78,2.89,109.62l19.98.78c.46-11.78-.19-24.65-2.88-111.03l-19.99.62ZM43.37,73.21l31.42-2.25-1.43-19.95-31.42,2.25,1.43,19.95ZM32.95,255.4l19.66-191.14-19.9-2.05L13.05,253.35l19.9,2.05ZM39.99,243.13l-17.7,1.27,1.43,19.95,17.7-1.27-1.43-19.95ZM45.85,102.89c-.5,6.63-1.32,15.75-15.1,149.19l19.89,2.05c13.76-133.21,14.61-142.75,15.14-149.73l-19.94-1.51ZM56.36,93.58l-1.25.09,1.43,19.95,1.25-.09-1.43-19.95ZM75.37,250.74c-3.97-66.03-6.12-101.31-7.24-120.92-1.13-19.83-1.18-23.18-1.07-25.83l-19.98-.87c-.17,3.89-.03,8.42,1.08,27.84,1.12,19.65,3.28,54.99,7.25,120.98l19.96-1.2ZM74.15,240.69l-9.48.68,1.43,19.95,9.48-.68-1.43-19.95ZM103.84,97.69c-1.18,6.39-3.59,14.93-38.66,150.46l19.36,5.01c34.83-134.64,37.61-144.53,38.96-151.85l-19.67-3.62ZM114.21,89.44l-1.25.09,1.43,19.95,1.25-.09-1.43-19.95ZM109.25,249.94c13.8-133.61,14.59-142.51,15.56-149.06l-19.78-2.93c-1.06,7.13-1.93,16.9-15.67,149.94l19.89,2.05ZM116.3,237.67l-17.7,1.27,1.43,19.95,17.7-1.27-1.43-19.95ZM642.61,42.85l-.71-9.97c-4.84.35-8.74,4.12-9.23,8.95l9.95,1.03ZM655.33,41.94l-.71-9.97.71,9.97ZM665.13,52.77l-9.97.71,9.97-.71ZM659.83,118.82l9.95,1.03h0s-9.95-1.03-9.95-1.03ZM651.08,178.6l9.31,3.66c.05-.12.09-.23.13-.35l-9.44-3.31ZM640.39,186.88l-.71-9.97.71,9.97ZM627.67,187.79l-9.95-1.03c-.3,2.94.71,5.86,2.77,7.99,2.06,2.12,4.95,3.23,7.89,3.01l-.71-9.97ZM666.43,193.54l-9.1-4.15s-.03.06-.04.09l9.14,4.06ZM679.85,118.39l-9.95-1.01h0s9.95,1.01,9.95,1.01ZM685.06,44.08l-9.97.71,9.97-.71ZM658.21,19.18l.71,9.97-.71-9.97ZM625.3,21.54l-.71-9.97c-4.84.35-8.74,4.12-9.23,8.95l9.95,1.02ZM605.64,212.68l-9.95-1.02c-.3,2.94.71,5.86,2.77,7.98,2.06,2.12,4.95,3.22,7.89,3.01l-.71-9.97ZM638.56,210.32l.71,9.97-.71-9.97ZM572.61,47.36l-.71-9.97c-4.84.35-8.74,4.12-9.23,8.95l9.95,1.02ZM585.08,46.47l-.71-9.97.71,9.97ZM593.95,54.86l9.97-.71-9.97.71ZM592.14,78.55l-9.93-1.19s0,.06,0,.08l9.94,1.1ZM574.65,114.39l.71,9.97-.71-9.97ZM565.67,115.03l-9.95-1.02c-.3,2.94.71,5.86,2.77,7.98s4.95,3.22,7.89,3.01l-.71-9.97ZM600.69,212.03l9.97-.71c-.03-.41-.08-.82-.17-1.23l-9.81,1.95ZM599.99,205.81l9.97-.71-9.97.71ZM601.1,137.31l-9.97.71,9.97-.71ZM595.44,124.68l-9.92-1.26c-.55,4.34,1.79,8.54,5.77,10.35l4.15-9.1ZM595.6,123.42l-4.37-9c-3.04,1.48-5.13,4.39-5.55,7.74l9.92,1.26ZM604.86,112.73l-9.07-4.22s-.02.05-.03.07l9.1,4.15ZM612.07,80.38l-9.95-1.05s0,.01,0,.02l9.95,1.03ZM613.92,46.66l-9.97.71,9.97-.71ZM591.24,23.97l-.71-9.97.71,9.97ZM555.33,26.54l-.71-9.97c-4.84.35-8.74,4.12-9.23,8.95l9.95,1.02ZM535.68,217.68l-9.95-1.02c-.3,2.94.71,5.86,2.77,7.98,2.06,2.12,4.95,3.22,7.89,3.01l-.71-9.97ZM555.37,216.27l.71,9.97c4.85-.35,8.74-4.13,9.23-8.96l-9.95-1.02ZM563.63,135.48l-.71-9.97c-4.85.35-8.74,4.13-9.23,8.96l9.95,1.02ZM573.1,134.8l.71,9.97-.71-9.97ZM580.92,142.51l9.97-.71-9.97.71ZM579.15,208.81l-9.97.71,9.97-.71ZM580.31,214.49l-9.24,3.83c1.65,3.98,5.66,6.45,9.95,6.14l-.71-9.97ZM600.76,213.03l.71,9.97c2.65-.19,5.11-1.42,6.84-3.43,1.74-2,2.61-4.62,2.42-7.26l-9.97.71ZM497.56,146.97l-9.83-1.82c-.56,3.04.31,6.18,2.38,8.49,2.06,2.31,5.08,3.53,8.17,3.31l-.71-9.97ZM515.07,51.98l-.71-9.97c-4.64.33-8.43,3.81-9.16,8.4l9.88,1.57ZM516.57,51.87l10,.28c.08-2.82-1.04-5.55-3.08-7.5s-4.81-2.95-7.63-2.75l.71,9.97ZM514.02,145.8l.71,9.97c5.12-.37,9.13-4.55,9.28-9.68l-10-.3ZM535.16,27.99l10,.21c.06-2.81-1.07-5.52-3.11-7.46-2.04-1.94-4.8-2.93-7.6-2.73l.71,9.97ZM501.5,30.4l-.71-9.97c-4.52.32-8.26,3.65-9.11,8.1l9.82,1.87ZM464.88,222.75l-9.82-1.87c-.58,3.05.29,6.2,2.35,8.52,2.06,2.32,5.09,3.55,8.19,3.33l-.71-9.97ZM485.33,221.29l.71,9.97c4.57-.33,8.33-3.72,9.13-8.23l-9.85-1.75ZM494.62,168.99l-.71-9.97c-4.57.33-8.33,3.72-9.13,8.23l9.85,1.75ZM512.83,167.69l10,.3c.09-2.83-1.03-5.56-3.07-7.52s-4.82-2.96-7.64-2.76l.71,9.97ZM511.26,219.43l-10-.3c-.09,2.83,1.03,5.56,3.07,7.52s4.82,2.96,7.64,2.76l-.71-9.97ZM531.21,218l.71,9.97c5.15-.37,9.18-4.6,9.28-9.77l-10-.21ZM435.01,204.59l-.71-9.97.71,9.97ZM425.66,192.97l9.97-.71-9.97.71ZM431.14,125.91l9.95,1.02s0-.01,0-.02l-9.95-1ZM440.32,61.59l9.42,3.34c.04-.12.09-.25.12-.37l-9.55-2.97ZM450.72,52.83l.71,9.97-.71-9.97ZM460,63.44l9.97-.71-9.97.71ZM455.22,129.7l9.95,1.04s0-.04,0-.05l-9.95-.99ZM445.42,195.82l-9.54-2.99c-.02.05-.03.11-.05.16l9.59,2.83ZM460.52,210.78l9.14,4.05s.02-.05.03-.07l-9.17-3.98ZM474.24,132.85l-9.95-1.05h0s9.95,1.05,9.95,1.05ZM479.49,55.53l9.97-.71-9.97.71ZM452.89,30.62l.71,9.97-.71-9.97ZM425.07,48.15l9.14,4.05s.02-.05.03-.07l-9.17-3.98ZM411.62,122.8l-9.95-1.04,9.95,1.04ZM406.09,203.15l9.97-.71-9.97.71ZM432.45,228.33l.71,9.97-.71-9.97ZM370.7,61.06l-.71-9.97c-4.84.35-8.73,4.12-9.23,8.94l9.95,1.03ZM383.17,60.17l-.71-9.97.71,9.97ZM391.86,69.57l9.97-.71-9.97.71ZM389.83,97.29l-9.95-1.05s0,.03,0,.05l9.95,1ZM376.14,123.08l-.71-9.97.71,9.97ZM364.17,123.94l-9.95-1.03c-.31,2.94.71,5.87,2.76,7.99,2.06,2.12,4.95,3.23,7.9,3.02l-.71-9.97ZM362.21,142.12l-.71-9.97c-4.85.35-8.75,4.13-9.24,8.97l9.95,1ZM375.18,141.2l.71,9.97-.71-9.97ZM384.37,150.56l-9.97.71,9.97-.71ZM382.77,177.24l-9.94-1.08s0,.08-.01.11l9.95.97ZM369.68,208.01l-.71-9.97.71,9.97ZM355.47,209.02l-9.95-1c-.3,2.94.72,5.85,2.78,7.97,2.06,2.12,4.94,3.22,7.89,3.01l-.71-9.97ZM402.81,177.06l-9.93-1.15c0,.06-.01.11-.02.17l9.95.98ZM404.94,143.83l9.97-.71-9.97.71ZM396.96,130.36l-9.96-.94c-.35,3.75,1.43,7.38,4.61,9.39l5.34-8.45ZM397.1,128.85l-5.66-8.24c-2.44,1.68-4.02,4.36-4.3,7.31l9.96.94ZM409.66,97.62l-9.94-1.05s0,.06,0,.1l9.95.96ZM411.74,60.13l9.97-.71-9.97.71ZM388.38,38.49l.71,9.97-.71-9.97ZM353.22,41.01l-.71-9.97c-4.84.35-8.74,4.12-9.23,8.95l9.95,1.02ZM333.57,232.15l-9.95-1.02c-.3,2.94.71,5.86,2.77,7.98,2.06,2.12,4.95,3.22,7.89,3.01l-.71-9.97ZM370.97,229.47l.71,9.97-.71-9.97ZM299.11,67.44l-.71-9.97c-4.84.35-8.74,4.12-9.23,8.95l9.95,1.03ZM311.83,66.53l-.71-9.97.71,9.97ZM321.62,77.36l-9.97.71,9.97-.71ZM316.32,143.4l9.95,1.03h0s-9.95-1.03-9.95-1.03ZM307.57,203.18l9.31,3.66c.05-.12.09-.23.13-.35l-9.44-3.31ZM296.88,211.46l.71,9.97-.71-9.97ZM284.17,212.37l-9.95-1.03c-.3,2.94.71,5.86,2.77,7.99s4.95,3.23,7.89,3.01l-.71-9.97ZM322.93,218.12l-9.1-4.15s-.03.06-.04.09l9.14,4.06ZM336.35,142.97l-9.95-1.01h0s9.95,1.01,9.95,1.01ZM341.55,68.66l-9.97.71,9.97-.71ZM314.71,43.76l-.71-9.97.71,9.97ZM281.79,46.12l-.71-9.97c-4.84.35-8.74,4.12-9.23,8.95l9.95,1.02ZM262.14,237.26l-9.95-1.02c-.3,2.94.71,5.86,2.77,7.98,2.06,2.12,4.95,3.22,7.89,3.01l-.71-9.97ZM295.05,234.9l.71,9.97-.71-9.97ZM225.6,219.57l-.71-9.97.71,9.97ZM216.25,207.96l9.97-.71-9.97.71ZM221.72,140.9l9.95,1.02v-.02s-9.95-1-9.95-1ZM230.91,76.58l9.42,3.34c.04-.12.09-.25.12-.37l-9.55-2.97ZM241.31,67.81l.71,9.97-.71-9.97ZM250.59,78.43l9.97-.71-9.97.71ZM245.81,144.69l9.95,1.04s0-.04,0-.05l-9.95-.99ZM236,210.81l-9.54-2.99c-.02.05-.03.11-.05.16l9.59,2.83ZM251.11,225.77l9.14,4.05s.02-.05.03-.07l-9.17-3.98ZM264.83,147.84l-9.95-1.05h0s9.95,1.05,9.95,1.05ZM270.07,70.52l9.97-.71-9.97.71ZM243.48,45.6l.71,9.97-.71-9.97ZM215.66,63.13l9.14,4.05s.02-.05.03-.07l-9.17-3.98ZM202.2,137.78l-9.95-1.04,9.95,1.04ZM196.67,218.13l9.97-.71-9.97.71ZM223.04,243.32l.71,9.97-.71-9.97ZM157.09,224.48l-.71-9.97.71,9.97ZM147.74,212.86l9.97-.71-9.97.71ZM153.22,145.8l9.95,1.02s0-.01,0-.02l-9.95-1ZM162.4,81.48l9.42,3.34c.04-.12.09-.25.12-.37l-9.55-2.97ZM172.8,72.72l.71,9.97-.71-9.97ZM182.08,83.33l9.97-.71-9.97.71ZM177.3,149.59l9.95,1.04s0-.04,0-.05l-9.95-.99ZM167.49,215.71l-9.54-2.99c-.02.05-.03.11-.05.16l9.59,2.83ZM182.6,230.67l9.14,4.05s.02-.05.03-.07l-9.17-3.98ZM196.32,152.74l-9.95-1.05h0s9.95,1.05,9.95,1.05ZM201.57,75.42l9.97-.71-9.97.71ZM174.97,50.51l.71,9.97-.71-9.97ZM147.15,68.04l9.14,4.05s.02-.05.03-.07l-9.17-3.98ZM133.69,142.69l-9.95-1.04,9.95,1.04ZM128.17,223.04l9.97-.71-9.97.71ZM154.53,248.22l.71,9.97-.71-9.97ZM136.67,56.51l9.95,1.02c.3-2.94-.71-5.86-2.77-7.98s-4.95-3.22-7.89-3.01l.71,9.97ZM104.5,58.81l-.71-9.97c-4.35.31-7.99,3.4-9.01,7.64l9.72,2.33ZM78.21,171.22l.71,9.97c4.68-.33,8.49-3.87,9.18-8.51l-9.89-1.47ZM76.96,171.31l-9.99-.39c-.11,2.84.99,5.6,3.04,7.58,2.04,1.98,4.83,2.99,7.67,2.79l-.71-9.97ZM74.08,60.98l10-.31c-.08-2.72-1.27-5.29-3.3-7.11-2.02-1.82-4.7-2.74-7.41-2.55l.71,9.97ZM42.66,63.23l-.71-9.97c-4.84.35-8.74,4.12-9.23,8.95l9.95,1.02ZM23,254.37l-9.95-1.02c-.3,2.94.71,5.86,2.77,7.98,2.06,2.12,4.95,3.22,7.89,3.01l-.71-9.97ZM40.7,253.11l.71,9.97c4.84-.35,8.73-4.12,9.23-8.95l-9.95-1.03ZM55.82,103.65l-.71-9.97c-4.94.35-8.88,4.28-9.26,9.22l9.97.76ZM57.07,103.56l9.99.43c.12-2.85-.97-5.62-3.02-7.6-2.04-1.99-4.84-3.01-7.69-2.81l.71,9.97ZM65.39,251.34l-9.98.6c.16,2.67,1.38,5.16,3.39,6.92,2.01,1.76,4.64,2.64,7.3,2.45l-.71-9.97ZM74.87,250.66l.71,9.97c4.28-.31,7.89-3.31,8.97-7.47l-9.68-2.5ZM113.68,99.51l-.71-9.97c-4.54.33-8.29,3.68-9.12,8.16l9.83,1.81ZM114.92,99.42l9.89,1.47c.44-3-.5-6.04-2.56-8.27-2.06-2.22-5.02-3.39-8.05-3.18l.71,9.97ZM99.3,248.91l-9.95-1.03c-.3,2.94.71,5.86,2.77,7.99,2.06,2.12,4.95,3.23,7.9,3.02l-.71-9.97ZM117.01,247.65l.71,9.97c4.84-.35,8.74-4.12,9.23-8.95l-9.95-1.02Z"/>
    <g>
      <path class="cls-4" d="M117.01,247.65l-17.7,1.27c13.77-133.32,14.6-142.66,15.62-149.5l-1.25.09c-1.26,6.86-3.86,16.07-38.81,151.16l-9.48.68c-7.94-132.02-8.6-141.25-8.32-147.78l-1.25.09c-.52,6.8-1.35,16.14-15.12,149.46l-17.7,1.27L42.66,63.23l31.42-2.25c2.7,86.78,3.33,99.02,2.88,110.33l1.25-.09c1.69-11.4,5.06-23.92,26.29-112.41l32.17-2.3-19.66,191.14Z"/>
      <path class="cls-4" d="M167.49,215.71c2.65-8.46,4.45-14.86,9.81-66.12,4.8-48.47,5.3-59.03,4.78-66.26-.64-8.98-3.3-11.04-9.28-10.61-5.74.41-8.57,2.87-10.4,8.76-2.92,8.23-4.2,14.84-9.18,64.32-4.87,47.47-5.99,59.83-5.48,67.06.55,7.73,1.62,12.17,9.35,11.61,5.98-.43,8.58-2.62,10.4-8.76ZM154.53,248.22c-19.95,1.43-24.96-5.48-26.36-25.18-.79-10.97.17-29.09,5.53-80.35,5.35-51.26,8.06-62.48,13.46-74.65,5.16-11.9,12.61-16.44,27.82-17.53,20.2-1.45,25.24,5.96,26.6,24.91.79,10.97-.17,29.09-5.24,77.32-5.64,54.29-8.56,66.03-13.72,77.93-5.4,12.17-12.86,16.46-28.07,17.55Z"/>
      <path class="cls-4" d="M236,210.81c2.65-8.46,4.45-14.86,9.81-66.12,4.8-48.47,5.3-59.03,4.78-66.26-.64-8.98-3.3-11.04-9.28-10.61-5.74.41-8.57,2.87-10.4,8.76-2.92,8.23-4.2,14.84-9.18,64.32-4.87,47.47-5.99,59.83-5.48,67.06.55,7.73,1.62,12.17,9.35,11.61,5.98-.43,8.58-2.62,10.4-8.76ZM223.04,243.32c-19.95,1.43-24.96-5.48-26.36-25.18-.79-10.97.17-29.09,5.53-80.35,5.35-51.26,8.06-62.48,13.46-74.65,5.16-11.9,12.61-16.44,27.82-17.53,20.2-1.45,25.24,5.96,26.6,24.92.79,10.97-.17,29.09-5.24,77.32-5.64,54.29-8.56,66.03-13.72,77.93-5.4,12.17-12.86,16.46-28.07,17.55Z"/>
      <path class="cls-4" d="M284.17,212.37l12.72-.91c5.98-.43,8.35-2.35,10.69-8.28,2.71-7.71,4.17-15.34,8.76-59.78,4.73-45.96,5.83-58.57,5.3-66.05-.64-8.98-2.32-11.36-9.8-10.83l-12.72.91-14.94,144.94ZM295.05,234.9l-32.92,2.36,19.66-191.14,32.92-2.36c20.45-1.46,25.49,5.95,26.85,24.9.77,10.72-.49,28.11-5.21,74.31-5.43,53.77-8.22,63.75-13.42,75.15-5.18,11.65-12.41,15.68-27.87,16.78Z"/>
      <path class="cls-4" d="M364.17,123.94l11.97-.86c9.23-.66,11.65-5.35,13.69-25.79,1.94-18.44,2.28-24.22,2.03-27.72-.46-6.48-2.21-9.87-8.69-9.4l-12.47.89-6.53,62.88ZM355.47,209.02l14.21-1.02c7.98-.57,10.63-5.52,13.09-30.76,1.51-13.89,1.96-21.7,1.6-26.68-.62-8.73-3.71-9.76-9.19-9.37l-12.97.93-6.74,66.9ZM370.97,229.47l-37.4,2.68,19.66-191.14,35.16-2.52c14.96-1.07,22.05,3.43,23.35,21.64.5,6.98.16,16.28-2.08,37.49-2.01,20.95-5.62,26.47-12.55,31.23l-.14,1.51c4.99,3.15,7.39,5.24,7.98,13.46.45,6.23-.12,15.8-2.13,33.24-3.91,39.88-12.64,51.03-31.84,52.41Z"/>
      <path class="cls-4" d="M445.42,195.82c2.65-8.46,4.45-14.86,9.81-66.12,4.8-48.47,5.3-59.03,4.78-66.26-.64-8.98-3.3-11.04-9.28-10.61-5.74.41-8.57,2.87-10.4,8.76-2.92,8.23-4.2,14.84-9.18,64.32-4.87,47.47-5.99,59.83-5.48,67.06.55,7.73,1.62,12.17,9.35,11.61,5.98-.43,8.58-2.62,10.4-8.76ZM432.45,228.33c-19.95,1.43-24.96-5.48-26.36-25.18-.79-10.97.17-29.09,5.53-80.35s8.06-62.48,13.46-74.65c5.16-11.9,12.61-16.44,27.82-17.53,20.2-1.45,25.24,5.96,26.6,24.92.79,10.97-.17,29.09-5.24,77.32-5.64,54.29-8.56,66.03-13.72,77.93-5.4,12.17-12.86,16.46-28.07,17.55Z"/>
      <path class="cls-4" d="M514.02,145.8c2.36-79.12,2.34-86.39,2.55-93.92l-1.5.11c-1.21,7.61-2.69,14.98-17.51,94.99l16.46-1.18ZM531.21,218l-19.95,1.43,1.56-51.74-18.2,1.3-9.29,52.3-20.45,1.46,36.61-192.35,33.66-2.41-3.95,190.02Z"/>
      <path class="cls-4" d="M565.67,115.03l8.98-.64c11.72-.84,14.28-7.04,17.49-35.84,1.73-14.41,2.08-19.95,1.81-23.69-.43-5.98-2.89-8.82-8.87-8.39l-12.47.89-6.94,67.67ZM600.76,213.03l-20.45,1.46c-.61-1.46-.96-2.94-1.16-5.68-.93-12.97,2.93-50.09,1.77-66.3-.5-6.98-2.58-8.09-7.82-7.71l-9.48.68-8.25,80.8-19.7,1.41,19.66-191.14,35.91-2.57c14.46-1.04,21.41,4.98,22.68,22.69.46,6.48.09,15.28-1.85,33.72-1.78,17.17-3.95,25.35-7.21,32.35-2.6,5.7-5.63,8.92-9.26,10.69l-.16,1.26c2.85,1.3,5.13,5.15,5.67,12.63,1.23,17.21-1.58,62.02-1.11,68.5.16,2.24.3,4.24.7,6.22l.07,1Z"/>
      <path class="cls-4" d="M627.67,187.79l12.72-.91c5.98-.43,8.35-2.35,10.69-8.28,2.71-7.71,4.17-15.34,8.76-59.78,4.73-45.95,5.83-58.57,5.3-66.05-.64-8.98-2.32-11.36-9.8-10.83l-12.72.91-14.94,144.94ZM638.56,210.32l-32.92,2.36,19.66-191.14,32.92-2.36c20.45-1.46,25.49,5.95,26.85,24.9.77,10.72-.49,28.11-5.21,74.31-5.43,53.77-8.22,63.75-13.42,75.15-5.18,11.65-12.41,15.68-27.87,16.78Z"/>
    </g>
  </g>
  <path class="cls-4" d="M619.67,32.83l-14.94,144.94,19.89,2.05,14.94-144.94-19.89-2.05ZM641.62,22.97l-12.72.91,1.43,19.95,12.72-.91-1.43-19.95ZM662.1,43.06c-.17-2.42-.45-4.92-1.02-7.23-.57-2.31-1.6-5.12-3.74-7.59-4.8-5.53-11.59-5.56-15.73-5.27l1.43,19.95c.67-.05,1.13-.05,1.42-.04.29.01.32.04.16,0-.17-.04-.55-.15-1.04-.43-.5-.29-.96-.67-1.34-1.1-.71-.82-.73-1.38-.57-.74.07.29.16.73.25,1.41.09.67.17,1.48.24,2.47l19.95-1.43ZM656.78,110.84c4.67-45.33,5.94-59.18,5.33-67.78l-19.95,1.43c.45,6.36-.48,17.73-5.27,64.31l19.89,2.05ZM647.51,172.91c3.18-9.07,4.72-18.05,9.27-62.06l-19.89-2.05c-4.63,44.87-6.02,51.14-8.24,57.49l18.87,6.62ZM628.1,187.85c3.83-.27,8.25-1.12,12.16-4.18,3.77-2.95,5.75-6.95,7.12-10.42l-18.61-7.32c-.46,1.16-.78,1.77-.97,2.06-.16.25-.13.13.14-.08.64-.5.88-.17-1.27-.02l1.43,19.95ZM615.39,188.76l12.72-.91-1.43-19.95-12.72.91,1.43,19.95ZM644.29,180.47c-2.03,4.56-3.95,6.57-6.04,7.81-2.4,1.42-6.23,2.55-13.41,3.07l1.43,19.95c8.28-.59,15.8-2.03,22.18-5.81,6.68-3.96,10.97-9.79,14.12-16.88l-18.27-8.13ZM656.9,108.38c-5.44,53.94-8.15,62.32-12.57,72l18.2,8.3c5.98-13.11,8.86-24.69,14.27-78.3l-19.9-2.01ZM662.09,35.79c.69,9.64-.43,25.98-5.18,72.58l19.9,2.03c4.67-45.81,6.08-64.24,5.23-76.04l-19.95,1.43ZM645.93,20.15c9.5-.68,11.98,1.06,12.75,1.84,1.19,1.21,2.73,4.37,3.41,13.79l19.95-1.43c-.68-9.52-2.34-19.55-9.12-26.42-7.2-7.29-17.46-8.53-28.41-7.74l1.43,19.95ZM613.01,22.51l32.92-2.36-1.43-19.95-32.92,2.36,1.43,19.95ZM602.59,204.7l19.66-191.14-19.9-2.05-19.66,191.14,19.9,2.05ZM624.84,191.35l-32.92,2.36,1.43,19.95,32.92-2.36-1.43-19.95ZM549.66,37.34l-6.94,67.67,19.9,2.04,6.94-67.67-19.9-2.04ZM571.37,27.5l-12.47.89,1.43,19.95,12.47-.89-1.43-19.95ZM590.93,45.14c-.28-3.89-1.31-9.05-5.29-12.99-4.26-4.22-9.75-4.98-14.27-4.66l1.43,19.95c.71-.05.78.04.47-.05-.18-.05-.45-.15-.77-.33-.33-.18-.65-.42-.93-.7-.59-.58-.77-1.08-.78-1.11,0,0,.03.09.07.32.04.23.09.55.12.99l19.95-1.43ZM589.07,70.74c1.7-14.2,2.21-20.72,1.86-25.59l-19.95,1.43c.19,2.61-.02,7.17-1.77,21.79l19.86,2.38ZM562.36,115.36c3.67-.26,7.78-1.01,11.61-3.28,4.02-2.38,6.74-5.84,8.64-9.83,3.38-7.08,4.91-17.66,6.46-31.61l-19.88-2.21c-1.65,14.86-3,21.77-4.64,25.21-.32.68-.57,1-.67,1.12-.09.1-.11.11-.11.11-.05.03-.65.37-2.84.53l1.43,19.95ZM553.39,116l8.98-.64-1.43-19.95-8.98.64,1.43,19.95ZM577.71,203.74l.07,1,19.95-1.43-.07-1-19.95,1.43ZM577.02,197.53c.15,2.12.33,4.75.86,7.45l19.62-3.89c-.25-1.26-.36-2.62-.53-4.98l-19.95,1.43ZM578.13,129.02c.57,7.96.21,22.87-.29,37.21-.24,6.95-.52,13.89-.69,19.23-.17,5.11-.29,9.79-.13,12.07l19.95-1.43c-.07-.96-.02-4.32.17-9.97.18-5.43.44-11.98.69-19.2.48-13.99.91-30.09.25-39.33l-19.95,1.43ZM578.29,124.78c-1.19-.54-1.39-1.25-1.16-.76.27.57.79,2.06,1,5l19.95-1.43c-.6-8.38-3.39-17.32-11.49-21.01l-8.3,18.2ZM572.68,113.16l-.16,1.26,19.84,2.51.16-1.26-19.84-2.51ZM582.76,99.58c-1.95,4.27-3.58,5.38-4.53,5.84l8.73,17.99c6.32-3.07,10.74-8.41,13.99-15.53l-18.2-8.3ZM589.12,70.35c-1.73,16.7-3.75,23.61-6.33,29.16l18.13,8.44c3.94-8.46,6.26-17.9,8.09-35.54l-19.89-2.06ZM590.94,38.38c.39,5.52.12,13.54-1.82,31.96l19.89,2.09c1.94-18.45,2.41-28.03,1.88-35.48l-19.95,1.43ZM578.95,24.95c5.97-.43,7.86.8,8.61,1.52,1.03,1,2.8,3.86,3.37,11.9l19.95-1.43c-.69-9.66-3.03-18.66-9.41-24.84-6.66-6.45-15.46-7.72-23.96-7.11l1.43,19.95ZM543.04,27.52l35.91-2.57-1.43-19.95-35.91,2.57,1.43,19.95ZM532.62,209.71l19.66-191.14-19.9-2.05-19.66,191.14,19.9,2.05ZM541.66,197.3l-19.7,1.41,1.43,19.95,19.7-1.41-1.43-19.95ZM540.68,125.46l-8.25,80.8,19.9,2.03,8.25-80.8-19.9-2.03ZM559.39,115.83l-9.48.68,1.43,19.95,9.48-.68-1.43-19.95ZM577.9,132.8c-.26-3.62-.99-9.39-5.46-13.37-4.64-4.13-10.46-3.79-13.05-3.6l1.43,19.95c1.04-.07,1.21-.01.97-.05-.39-.07-1.52-.35-2.65-1.36-1.08-.96-1.41-1.92-1.43-1.99-.01-.03.03.08.08.41.05.33.11.79.16,1.44l19.95-1.43ZM576.13,199.09c-.41-5.67.26-17.31.98-30.67.69-12.66,1.42-26.74.79-35.62l-19.95,1.43c.52,7.32-.09,19.91-.81,33.11-.68,12.49-1.48,25.9-.96,33.19l19.95-1.43ZM576.55,201.66c-.09-.21-.14-.36-.19-.6-.06-.31-.16-.88-.23-1.97l-19.95,1.43c.25,3.47.76,6.07,1.9,8.8l18.47-7.66ZM587.04,194.05l-20.45,1.46,1.43,19.95,20.45-1.46-1.43-19.95ZM485.27,147.95l16.46-1.18-1.43-19.95-16.46,1.18,1.43,19.95ZM492.2,41.41c-1.18,7.44-2.61,14.56-17.47,94.74l19.67,3.64c14.79-79.84,16.32-87.47,17.56-95.24l-19.75-3.14ZM502.85,32.9l-1.5.11,1.43,19.95,1.5-.11-1.43-19.95ZM511.01,137.09c2.36-79.04,2.34-86.59,2.55-93.94l-19.99-.56c-.22,7.72-.19,14.71-2.55,93.91l19.99.6ZM512.16,18.78l-3.95,190.02,20,.42,3.95-190.02-20-.42ZM489.21,31.37l33.66-2.41-1.43-19.95-33.66,2.41,1.43,19.95ZM461.71,215.62l36.61-192.35-19.65-3.74-36.61,192.35,19.65,3.74ZM471.62,202.31l-20.45,1.46,1.43,19.95,20.45-1.46-1.43-19.95ZM471.78,158.24l-9.29,52.3,19.69,3.5,9.29-52.3-19.69-3.5ZM499.11,148.71l-18.2,1.3,1.43,19.95,18.2-1.3-1.43-19.95ZM508.26,210.73l1.56-51.74-19.99-.6-1.56,51.74,19.99.6ZM517.5,199.03l-19.95,1.43,1.43,19.95,19.95-1.43-1.43-19.95ZM422.73,205.56c3.99-.29,8.57-1.26,12.49-4.57,3.83-3.22,5.66-7.52,6.78-11.34l-19.18-5.67c-.33,1.11-.59,1.67-.72,1.91-.11.2-.05.04.23-.2.3-.25.53-.33.49-.31-.11.04-.54.15-1.52.22l1.43,19.95ZM402.69,184.69c.24,3.4.64,9.12,3.57,13.65,1.75,2.7,4.28,4.85,7.53,6.1,3.02,1.16,6.13,1.33,8.94,1.13l-1.43-19.95c-1.06.08-.98-.1-.35.14.35.13.77.36,1.19.7.42.34.71.7.89.98.31.48.22.59.04-.27-.17-.85-.31-2.05-.44-3.91l-19.95,1.43ZM408.19,115.89c-2.43,23.7-3.94,38.77-4.78,48.81-.83,9.94-1.04,15.52-.73,19.98l19.95-1.43c-.2-2.77-.12-6.98.71-16.9.81-9.81,2.3-24.66,4.74-48.43l-19.9-2.04ZM417.9,49.25c-3.42,9.64-4.78,17.68-9.71,66.66l19.9,2c5.03-49.98,6.24-55.15,8.66-61.98l-18.85-6.69ZM437.01,33.85c-4.16.3-8.61,1.44-12.42,4.67-3.69,3.13-5.62,7.25-6.82,11.1l19.1,5.94c.64-2.05,1.04-2.11.66-1.78-.2.17-.36.22-.33.21.08-.03.43-.13,1.23-.19l-1.43-19.95ZM456.98,53.73c-.34-4.75-1.28-10.67-5.33-14.97-4.67-4.96-10.79-5.18-14.64-4.9l1.43,19.95c.45-.03.72-.03.87-.02.14,0,.08.02-.11-.03-.21-.05-.56-.17-.97-.4-.43-.24-.81-.55-1.14-.89-.63-.67-.68-1.13-.54-.67.15.49.35,1.51.49,3.36l19.95-1.43ZM452.17,121.69c4.76-48.06,5.4-59.67,4.81-67.96l-19.95,1.43c.44,6.17.08,15.69-4.76,64.56l19.9,1.97ZM441.96,189.81c2.99-9.54,4.86-16.89,10.21-68.07l-19.89-2.08c-5.36,51.34-7.09,56.79-9.4,64.17l19.08,5.98ZM438.38,197.73c-2.16,4.87-4.24,7.1-6.45,8.46-2.44,1.5-6.24,2.67-13.19,3.16l1.43,19.95c8.26-.59,15.8-2.12,22.24-6.08,6.67-4.1,11.02-10.09,14.26-17.39l-18.28-8.11ZM451.3,122.82c-5.66,54.48-8.49,64.71-12.95,74.98l18.35,7.96c5.87-13.52,8.88-26.78,14.5-80.88l-19.89-2.07ZM456.51,47.24c.71,9.92-.12,27.09-5.21,75.56l19.89,2.09c5.05-48,6.13-67.05,5.27-79.08l-19.95,1.43ZM440.61,31.59c9.34-.67,11.75,1.06,12.5,1.83,1.19,1.22,2.73,4.4,3.4,13.83l19.95-1.43c-.68-9.53-2.34-19.52-9.06-26.39-7.16-7.31-17.37-8.57-28.22-7.79l1.43,19.95ZM421.25,43.13c2.04-4.71,4.07-6.95,6.27-8.32,2.42-1.51,6.21-2.72,13.09-3.21l-1.43-19.95c-8.33.6-15.87,2.2-22.27,6.21-6.61,4.14-10.89,10.12-14.01,17.31l18.35,7.96ZM408.56,114.84c5.38-51.46,7.99-61.13,12.65-71.64l-18.28-8.11c-6.13,13.83-8.93,26.6-14.26,77.67l19.89,2.08ZM403.06,193.43c-.71-9.91.12-27.07,5.5-78.6l-19.89-2.08c-5.33,51-6.42,70.07-5.56,82.1l19.95-1.43ZM418.74,209.35c-9.35.67-11.6-1-12.27-1.68-1.14-1.16-2.7-4.35-3.41-14.24l-19.95,1.43c.7,9.82,2.35,19.93,9.05,26.79,7.18,7.34,17.4,8.41,28,7.65l-1.43-19.95ZM347.75,51.03l-6.53,62.88,19.89,2.07,6.53-62.88-19.89-2.07ZM369.45,41.19l-12.47.89,1.43,19.95,12.47-.89-1.43-19.95ZM388.83,59.86c-.24-3.42-.88-8.71-4.32-12.92-4.16-5.09-10.07-6.1-15.06-5.75l1.43,19.95c.79-.06.73.06.21-.11-.28-.09-.66-.26-1.06-.53-.41-.27-.74-.6-1.01-.92-.51-.62-.55-1.02-.46-.68.1.35.23,1.07.32,2.37l19.95-1.43ZM386.78,89.33c1.9-18.09,2.38-24.9,2.06-29.48l-19.95,1.43c.17,2.41-.02,7.17-2,25.96l19.89,2.09ZM363.85,124.05c3.01-.22,6.5-.81,9.83-2.63,3.54-1.93,6.06-4.79,7.84-8.14,3.08-5.83,4.28-14.13,5.26-24l-19.9-1.99c-.5,5.01-1,8.76-1.56,11.62-.58,2.91-1.13,4.35-1.48,5.02-.24.45-.18.18.25-.06.22-.12-.06.12-1.66.23l1.43,19.95ZM351.88,124.91l11.97-.86-1.43-19.95-11.97.86,1.43,19.95ZM339.26,132.12l-6.74,66.9,19.9,2.01,6.74-66.9-19.9-2.01ZM361.46,122.22l-12.97.93,1.43,19.95,12.97-.93-1.43-19.95ZM381.35,140.85c-.35-4.85-1.47-10.94-6.28-15.02-4.87-4.13-10.81-3.81-13.6-3.61l1.43,19.95c.51-.04.86-.05,1.1-.04.24,0,.29.02.2,0-.09-.02-.38-.07-.77-.24-.41-.17-.86-.44-1.3-.8-.43-.37-.73-.74-.92-1.03-.18-.28-.23-.44-.21-.38.02.06.09.28.17.73.08.45.16,1.06.22,1.87l19.95-1.43ZM379.71,169.33c1.5-13.83,2.06-22.47,1.63-28.48l-19.95,1.43c.28,3.97-.05,10.93-1.57,24.89l19.88,2.16ZM357.4,208.98c2.93-.21,6.51-.89,9.9-3.15,3.44-2.29,5.65-5.51,7.16-8.92,2.72-6.17,4.07-15.35,5.27-27.7l-19.91-1.94c-1.25,12.89-2.46,18.81-3.67,21.57-.46,1.05-.57.76.06.34.57-.38.82-.23-.24-.15l1.43,19.95ZM343.18,210l14.21-1.02-1.43-19.95-14.21,1.02,1.43,19.95ZM379.86,167.09c-1.94,19.79-4.97,30.45-8.66,36.24-1.68,2.63-3.43,4.13-5.31,5.11-2,1.04-4.69,1.78-8.62,2.06l1.43,19.95c5.67-.41,11.26-1.58,16.43-4.26,5.27-2.74,9.55-6.78,12.94-12.09,6.45-10.1,9.74-24.96,11.71-45.05l-19.9-1.95ZM381.97,135.54c.37,5.18-.08,13.89-2.09,31.38l19.87,2.29c2-17.38,2.69-27.81,2.17-35.1l-19.95,1.43ZM378.62,129.82c2.5,1.58,2.67,1.93,2.67,1.93,0,0,0,0,.01.02,0,.01.02.04.04.08.03.08.1.24.17.51.16.57.34,1.55.46,3.19l19.95-1.43c-.35-4.9-1.32-9.47-4-13.48-2.59-3.88-6.13-6.16-8.61-7.73l-10.68,16.91ZM374.15,118.91l-.14,1.51,19.91,1.87.14-1.51-19.91-1.87ZM386.7,87.67c-.98,10.22-2.27,15.53-3.63,18.61-1.09,2.48-2.28,3.71-4.63,5.32l11.32,16.49c4.58-3.15,8.66-7.05,11.61-13.76,2.69-6.1,4.2-14.03,5.23-24.76l-19.91-1.91ZM388.76,51.84c.43,6.02.19,14.55-2.05,35.73l19.89,2.1c2.24-21.25,2.68-31.32,2.11-39.26l-19.95,1.43ZM376.09,39.47c6.86-.49,8.9.63,9.57,1.2.69.59,2.5,2.82,3.1,11.17l19.95-1.43c-.71-9.85-3.09-18.97-10.01-24.92-6.94-5.96-15.93-6.56-24.03-5.98l1.43,19.95ZM340.93,41.98l35.16-2.52-1.43-19.95-35.16,2.52,1.43,19.95ZM330.51,224.17l19.66-191.14-19.9-2.05-19.66,191.14,19.9,2.05ZM357.26,210.5l-37.4,2.68,1.43,19.95,37.4-2.68-1.43-19.95ZM276.16,57.41l-14.94,144.94,19.89,2.05,14.94-144.94-19.89-2.05ZM298.11,47.55l-12.72.91,1.43,19.95,12.72-.91-1.43-19.95ZM318.6,67.64c-.17-2.42-.45-4.92-1.02-7.23-.57-2.31-1.6-5.12-3.74-7.59-4.8-5.53-11.59-5.56-15.73-5.27l1.43,19.95c.67-.05,1.13-.05,1.42-.04.29.01.32.04.16,0-.17-.04-.55-.15-1.04-.43-.5-.29-.96-.67-1.34-1.1-.71-.82-.73-1.38-.57-.74.07.29.16.73.25,1.41.09.67.17,1.48.24,2.47l19.95-1.43ZM313.27,135.43c4.67-45.33,5.94-59.18,5.33-67.78l-19.95,1.43c.45,6.36-.48,17.73-5.27,64.31l19.89,2.05ZM304.01,197.49c3.18-9.07,4.72-18.05,9.27-62.06l-19.89-2.05c-4.63,44.87-6.01,51.14-8.24,57.49l18.87,6.62ZM284.6,212.44c3.83-.27,8.25-1.12,12.16-4.18,3.77-2.95,5.75-6.95,7.12-10.42l-18.61-7.32c-.46,1.16-.78,1.77-.97,2.06-.16.25-.13.13.14-.08.64-.5.88-.17-1.27-.02l1.43,19.95ZM271.88,213.35l12.72-.91-1.43-19.95-12.72.91,1.43,19.95ZM300.79,205.06c-2.03,4.56-3.95,6.57-6.04,7.81-2.4,1.42-6.23,2.55-13.41,3.07l1.43,19.95c8.28-.59,15.8-2.03,22.18-5.81,6.68-3.96,10.97-9.79,14.12-16.88l-18.27-8.13ZM313.4,132.97c-5.44,53.94-8.15,62.32-12.57,72l18.2,8.3c5.98-13.11,8.86-24.69,14.27-78.3l-19.9-2.01ZM318.58,60.37c.69,9.64-.43,25.98-5.18,72.58l19.9,2.03c4.67-45.81,6.08-64.24,5.23-76.04l-19.95,1.43ZM302.42,44.74c9.5-.68,11.98,1.06,12.75,1.84,1.19,1.21,2.73,4.37,3.41,13.79l19.95-1.43c-.68-9.52-2.34-19.55-9.12-26.42-7.2-7.29-17.46-8.53-28.41-7.74l1.43,19.95ZM269.51,47.09l32.92-2.36-1.43-19.95-32.92,2.36,1.43,19.95ZM259.08,229.28l19.66-191.14-19.9-2.05-19.66,191.14,19.9,2.05ZM281.34,215.93l-32.92,2.36,1.43,19.95,32.92-2.36-1.43-19.95ZM213.31,220.55c3.99-.29,8.57-1.26,12.49-4.57,3.83-3.22,5.66-7.52,6.78-11.34l-19.18-5.67c-.33,1.11-.59,1.67-.72,1.91-.11.2-.05.04.23-.2.3-.25.53-.33.49-.31-.11.04-.54.15-1.52.22l1.43,19.95ZM193.27,199.67c.24,3.4.64,9.12,3.57,13.65,1.75,2.7,4.28,4.85,7.53,6.1,3.02,1.16,6.13,1.33,8.94,1.13l-1.43-19.95c-1.06.08-.98-.1-.35.14.35.13.77.36,1.19.7.42.34.71.7.89.98.31.48.22.59.04-.27-.17-.85-.31-2.05-.44-3.91l-19.95,1.43ZM198.78,130.88c-2.43,23.7-3.94,38.77-4.78,48.81-.83,9.94-1.04,15.52-.73,19.98l19.95-1.43c-.2-2.77-.12-6.98.71-16.9.81-9.81,2.3-24.66,4.74-48.43l-19.9-2.04ZM208.48,64.24c-3.42,9.64-4.78,17.68-9.71,66.66l19.9,2c5.03-49.98,6.24-55.15,8.66-61.98l-18.85-6.69ZM227.59,48.84c-4.16.3-8.61,1.44-12.42,4.67-3.69,3.13-5.62,7.25-6.82,11.1l19.1,5.94c.64-2.05,1.04-2.11.66-1.78-.2.17-.36.22-.33.21.08-.03.43-.13,1.23-.19l-1.43-19.95ZM247.56,68.71c-.34-4.75-1.28-10.67-5.33-14.97-4.67-4.96-10.79-5.18-14.64-4.9l1.43,19.95c.45-.03.72-.03.87-.02.14,0,.08.02-.11-.03-.21-.05-.56-.17-.97-.4-.43-.24-.81-.55-1.14-.89-.63-.67-.68-1.13-.54-.67.15.49.35,1.51.49,3.36l19.95-1.43ZM242.76,136.68c4.76-48.06,5.4-59.67,4.81-67.96l-19.95,1.43c.44,6.17.08,15.69-4.76,64.56l19.9,1.97ZM232.54,204.8c2.99-9.54,4.86-16.89,10.21-68.07l-19.89-2.08c-5.36,51.34-7.09,56.79-9.4,64.17l19.08,5.98ZM228.96,212.71c-2.16,4.87-4.24,7.1-6.45,8.46-2.44,1.5-6.24,2.67-13.19,3.16l1.43,19.95c8.26-.59,15.8-2.12,22.24-6.08,6.67-4.1,11.02-10.09,14.26-17.39l-18.28-8.11ZM241.88,137.81c-5.66,54.48-8.49,64.71-12.95,74.98l18.35,7.96c5.87-13.52,8.88-26.78,14.5-80.88l-19.89-2.07ZM247.1,62.23c.71,9.92-.12,27.09-5.21,75.56l19.89,2.09c5.05-48,6.13-67.05,5.27-79.08l-19.95,1.43ZM231.19,46.58c9.34-.67,11.75,1.06,12.5,1.83,1.19,1.22,2.73,4.4,3.4,13.83l19.95-1.43c-.68-9.53-2.34-19.52-9.06-26.39-7.16-7.31-17.37-8.57-28.22-7.79l1.43,19.95ZM211.83,58.11c2.04-4.71,4.07-6.95,6.27-8.32,2.42-1.51,6.21-2.72,13.09-3.21l-1.43-19.95c-8.33.6-15.87,2.2-22.27,6.21-6.61,4.14-10.89,10.12-14.01,17.31l18.35,7.96ZM199.15,129.82c5.38-51.46,7.99-61.13,12.65-71.64l-18.28-8.11c-6.13,13.83-8.93,26.6-14.26,77.67l19.89,2.08ZM193.65,208.42c-.71-9.91.12-27.07,5.5-78.6l-19.89-2.08c-5.33,51-6.42,70.07-5.56,82.1l19.95-1.43ZM209.32,224.34c-9.35.67-11.6-1-12.27-1.68-1.14-1.16-2.7-4.35-3.41-14.24l-19.95,1.43c.7,9.82,2.35,19.93,9.05,26.79,7.18,7.34,17.4,8.41,28,7.65l-1.43-19.95ZM144.81,225.45c3.99-.29,8.57-1.26,12.49-4.57,3.83-3.22,5.66-7.52,6.78-11.34l-19.18-5.67c-.33,1.11-.59,1.67-.72,1.91-.11.2-.05.04.23-.2.3-.25.53-.33.49-.31-.11.04-.54.15-1.52.22l1.43,19.95ZM124.77,204.58c.24,3.4.64,9.12,3.57,13.65,1.75,2.7,4.28,4.85,7.53,6.1,3.02,1.16,6.13,1.33,8.94,1.13l-1.43-19.95c-1.06.08-.98-.1-.35.14.35.13.77.36,1.19.7.42.34.71.7.89.98.31.48.22.59.04-.27-.17-.85-.31-2.05-.44-3.91l-19.95,1.43ZM130.27,135.78c-2.43,23.7-3.94,38.77-4.78,48.81-.83,9.94-1.04,15.52-.73,19.98l19.95-1.43c-.2-2.77-.12-6.98.71-16.9.81-9.81,2.3-24.66,4.74-48.43l-19.9-2.04ZM139.97,69.14c-3.42,9.64-4.78,17.68-9.71,66.66l19.9,2c5.03-49.98,6.24-55.15,8.66-61.98l-18.85-6.69ZM159.09,53.74c-4.16.3-8.61,1.44-12.42,4.67-3.69,3.13-5.62,7.25-6.82,11.1l19.1,5.94c.64-2.05,1.04-2.11.66-1.78-.2.17-.36.22-.33.21.08-.03.43-.13,1.23-.19l-1.43-19.95ZM179.06,73.62c-.34-4.75-1.28-10.67-5.33-14.97-4.67-4.96-10.79-5.18-14.64-4.9l1.43,19.95c.45-.03.72-.03.87-.02.14,0,.08.02-.11-.03-.21-.05-.56-.17-.97-.4-.43-.24-.81-.55-1.14-.89-.63-.67-.68-1.13-.54-.67.15.49.35,1.51.49,3.36l19.95-1.43ZM174.25,141.58c4.76-48.06,5.4-59.67,4.81-67.96l-19.95,1.43c.44,6.17.08,15.69-4.76,64.56l19.9,1.97ZM164.04,209.7c2.99-9.54,4.86-16.89,10.21-68.07l-19.89-2.08c-5.36,51.34-7.09,56.79-9.4,64.17l19.08,5.98ZM160.46,217.62c-2.16,4.87-4.24,7.1-6.45,8.46-2.44,1.5-6.24,2.67-13.19,3.16l1.43,19.95c8.26-.59,15.8-2.12,22.24-6.08,6.67-4.1,11.02-10.09,14.26-17.39l-18.28-8.11ZM173.38,142.71c-5.66,54.48-8.49,64.71-12.95,74.98l18.35,7.96c5.87-13.52,8.88-26.78,14.5-80.88l-19.89-2.07ZM178.59,67.13c.71,9.92-.12,27.09-5.21,75.56l19.89,2.09c5.05-48,6.13-67.05,5.27-79.08l-19.95,1.43ZM162.68,51.48c9.34-.67,11.75,1.06,12.5,1.83,1.19,1.22,2.73,4.4,3.4,13.83l19.95-1.43c-.68-9.53-2.34-19.52-9.06-26.39-7.16-7.31-17.37-8.57-28.22-7.79l1.43,19.95ZM143.32,63.02c2.04-4.71,4.07-6.95,6.27-8.32,2.42-1.51,6.21-2.72,13.09-3.21l-1.43-19.95c-8.33.6-15.87,2.2-22.27,6.21-6.61,4.14-10.89,10.12-14.01,17.31l18.35,7.96ZM130.64,134.73c5.38-51.46,7.99-61.13,12.65-71.64l-18.28-8.11c-6.13,13.83-8.93,26.6-14.26,77.67l19.89,2.08ZM125.14,213.32c-.71-9.91.12-27.07,5.5-78.6l-19.89-2.08c-5.33,51-6.42,70.07-5.56,82.1l19.95-1.43ZM140.82,229.24c-9.35.67-11.6-1-12.27-1.68-1.14-1.16-2.7-4.35-3.41-14.24l-19.95,1.43c.7,9.82,2.35,19.93,9.05,26.79,7.18,7.34,17.4,8.41,28,7.65l-1.43-19.95ZM113.72,46.48l-19.66,191.14,19.9,2.05,19.66-191.14-19.9-2.05ZM92.21,59.78l32.17-2.3-1.43-19.95-32.17,2.3,1.43,19.95ZM75.1,163.69c1.6-10.82,4.77-22.55,26.12-111.55l-19.45-4.67c-21.11,87.98-24.68,101.3-26.46,113.28l19.78,2.93ZM64.67,172.28l1.25-.09-1.43-19.95-1.25.09,1.43,19.95ZM51.08,52.3c2.71,87.18,3.31,98.78,2.89,109.62l19.98.78c.46-11.78-.19-24.65-2.88-111.03l-19.99.62ZM30.37,64.21l31.42-2.25-1.43-19.95-31.42,2.25,1.43,19.95ZM19.95,246.4L39.6,55.26l-19.9-2.05L.05,244.35l19.9,2.05ZM26.99,234.13l-17.7,1.27,1.43,19.95,17.7-1.27-1.43-19.95ZM32.85,93.89c-.5,6.63-1.32,15.75-15.1,149.19l19.89,2.05c13.76-133.21,14.61-142.75,15.14-149.73l-19.94-1.51ZM43.36,84.58l-1.25.09,1.43,19.95,1.25-.09-1.43-19.95ZM62.37,241.74c-3.97-66.03-6.12-101.31-7.24-120.92-1.13-19.83-1.18-23.18-1.07-25.83l-19.98-.87c-.17,3.89-.03,8.42,1.08,27.84,1.12,19.65,3.28,54.99,7.25,120.98l19.96-1.2ZM61.15,231.69l-9.48.68,1.43,19.95,9.48-.68-1.43-19.95ZM90.84,88.69c-1.18,6.39-3.59,14.93-38.66,150.46l19.36,5.01c34.83-134.64,37.61-144.53,38.96-151.85l-19.67-3.62ZM101.21,80.44l-1.25.09,1.43,19.95,1.25-.09-1.43-19.95ZM96.25,240.94c13.8-133.61,14.59-142.51,15.56-149.06l-19.78-2.93c-1.06,7.13-1.93,16.9-15.67,149.94l19.89,2.05ZM103.3,228.67l-17.7,1.27,1.43,19.95,17.7-1.27-1.43-19.95ZM629.61,33.85l-.71-9.97c-4.84.35-8.74,4.12-9.23,8.95l9.95,1.03ZM642.33,32.94l-.71-9.97.71,9.97ZM652.13,43.77l-9.97.71,9.97-.71ZM646.83,109.82l9.95,1.03h0s-9.95-1.03-9.95-1.03ZM638.08,169.6l9.31,3.66c.05-.12.09-.23.13-.35l-9.44-3.31ZM627.39,177.88l-.71-9.97.71,9.97ZM614.67,178.79l-9.95-1.03c-.3,2.94.71,5.86,2.77,7.99,2.06,2.12,4.95,3.23,7.89,3.01l-.71-9.97ZM653.43,184.54l-9.1-4.15s-.03.06-.04.09l9.14,4.06ZM666.85,109.39l-9.95-1.01h0s9.95,1.01,9.95,1.01ZM672.06,35.08l-9.97.71,9.97-.71ZM645.21,10.18l.71,9.97-.71-9.97ZM612.3,12.54l-.71-9.97c-4.84.35-8.74,4.12-9.23,8.95l9.95,1.02ZM592.64,203.68l-9.95-1.02c-.3,2.94.71,5.86,2.77,7.98,2.06,2.12,4.95,3.22,7.89,3.01l-.71-9.97ZM625.56,201.32l.71,9.97-.71-9.97ZM559.61,38.36l-.71-9.97c-4.84.35-8.74,4.12-9.23,8.95l9.95,1.02ZM572.08,37.47l-.71-9.97.71,9.97ZM580.95,45.86l9.97-.71-9.97.71ZM579.14,69.55l-9.93-1.19s0,.06,0,.08l9.94,1.1ZM561.65,105.39l.71,9.97-.71-9.97ZM552.67,106.03l-9.95-1.02c-.3,2.94.71,5.86,2.77,7.98s4.95,3.22,7.89,3.01l-.71-9.97ZM587.69,203.03l9.97-.71c-.03-.41-.08-.82-.17-1.23l-9.81,1.95ZM586.99,196.81l9.97-.71-9.97.71ZM588.1,128.31l-9.97.71,9.97-.71ZM582.44,115.68l-9.92-1.26c-.55,4.34,1.79,8.54,5.77,10.35l4.15-9.1ZM582.6,114.42l-4.37-9c-3.04,1.48-5.13,4.39-5.55,7.74l9.92,1.26ZM591.86,103.73l-9.07-4.22s-.02.05-.03.07l9.1,4.15ZM599.07,71.38l-9.95-1.05s0,.01,0,.02l9.95,1.03ZM600.92,37.66l-9.97.71,9.97-.71ZM578.24,14.97l-.71-9.97.71,9.97ZM542.33,17.54l-.71-9.97c-4.84.35-8.74,4.12-9.23,8.95l9.95,1.02ZM522.68,208.68l-9.95-1.02c-.3,2.94.71,5.86,2.77,7.98,2.06,2.12,4.95,3.22,7.89,3.01l-.71-9.97ZM542.37,207.27l.71,9.97c4.85-.35,8.74-4.13,9.23-8.96l-9.95-1.02ZM550.63,126.48l-.71-9.97c-4.85.35-8.74,4.13-9.23,8.96l9.95,1.02ZM560.1,125.8l.71,9.97-.71-9.97ZM567.92,133.51l9.97-.71-9.97.71ZM566.15,199.81l-9.97.71,9.97-.71ZM567.31,205.49l-9.24,3.83c1.65,3.98,5.66,6.45,9.95,6.14l-.71-9.97ZM587.76,204.03l.71,9.97c2.65-.19,5.11-1.42,6.84-3.43,1.74-2,2.61-4.62,2.42-7.26l-9.97.71ZM484.56,137.97l-9.83-1.82c-.56,3.04.31,6.18,2.38,8.49,2.06,2.31,5.08,3.53,8.17,3.31l-.71-9.97ZM502.07,42.98l-.71-9.97c-4.64.33-8.43,3.81-9.16,8.4l9.88,1.57ZM503.57,42.87l10,.28c.08-2.82-1.04-5.55-3.08-7.5-2.04-1.95-4.81-2.95-7.63-2.75l.71,9.97ZM501.02,136.8l.71,9.97c5.12-.37,9.13-4.55,9.28-9.68l-10-.3ZM522.16,18.99l10,.21c.06-2.81-1.07-5.52-3.11-7.46-2.04-1.94-4.8-2.93-7.6-2.73l.71,9.97ZM488.5,21.4l-.71-9.97c-4.52.32-8.26,3.65-9.11,8.1l9.82,1.87ZM451.88,213.75l-9.82-1.87c-.58,3.05.29,6.2,2.35,8.52,2.06,2.32,5.09,3.55,8.19,3.33l-.71-9.97ZM472.33,212.29l.71,9.97c4.57-.33,8.33-3.72,9.13-8.23l-9.85-1.75ZM481.62,159.99l-.71-9.97c-4.57.33-8.33,3.72-9.13,8.23l9.85,1.75ZM499.83,158.69l10,.3c.09-2.83-1.03-5.56-3.07-7.52s-4.82-2.96-7.64-2.76l.71,9.97ZM498.26,210.43l-10-.3c-.09,2.83,1.03,5.56,3.07,7.52s4.82,2.96,7.64,2.76l-.71-9.97ZM518.21,209l.71,9.97c5.15-.37,9.18-4.6,9.28-9.77l-10-.21ZM422.01,195.59l-.71-9.97.71,9.97ZM412.66,183.97l9.97-.71-9.97.71ZM418.14,116.91l9.95,1.02s0-.01,0-.02l-9.95-1ZM427.32,52.59l9.42,3.34c.04-.12.09-.25.12-.37l-9.55-2.97ZM437.72,43.83l.71,9.97-.71-9.97ZM447,54.44l9.97-.71-9.97.71ZM442.22,120.7l9.95,1.04s0-.04,0-.05l-9.95-.99ZM432.42,186.82l-9.54-2.99c-.02.05-.03.11-.05.16l9.59,2.83ZM447.52,201.78l9.14,4.05s.02-.05.03-.07l-9.17-3.98ZM461.24,123.85l-9.95-1.05h0s9.95,1.05,9.95,1.05ZM466.49,46.53l9.97-.71-9.97.71ZM439.89,21.62l.71,9.97-.71-9.97ZM412.07,39.15l9.14,4.05s.02-.05.03-.07l-9.17-3.98ZM398.62,113.8l-9.95-1.04,9.95,1.04ZM393.09,194.15l9.97-.71-9.97.71ZM419.45,219.33l.71,9.97-.71-9.97ZM357.7,52.06l-.71-9.97c-4.84.35-8.73,4.12-9.23,8.94l9.95,1.03ZM370.17,51.17l-.71-9.97.71,9.97ZM378.86,60.57l9.97-.71-9.97.71ZM376.83,88.29l-9.95-1.05s0,.03,0,.05l9.95,1ZM363.14,114.08l-.71-9.97.71,9.97ZM351.17,114.94l-9.95-1.03c-.31,2.94.71,5.87,2.76,7.99,2.06,2.12,4.95,3.23,7.9,3.02l-.71-9.97ZM349.21,133.12l-.71-9.97c-4.85.35-8.75,4.13-9.24,8.97l9.95,1ZM362.18,132.2l.71,9.97-.71-9.97ZM371.37,141.56l-9.97.71,9.97-.71ZM369.77,168.25l-9.94-1.08s0,.08-.01.11l9.95.97ZM356.68,199.01l-.71-9.97.71,9.97ZM342.47,200.02l-9.95-1c-.3,2.94.72,5.85,2.78,7.97,2.06,2.12,4.94,3.22,7.89,3.01l-.71-9.97ZM389.81,168.06l-9.93-1.15c0,.06-.01.11-.02.17l9.95.98ZM391.94,134.83l9.97-.71-9.97.71ZM383.96,121.36l-9.96-.94c-.35,3.75,1.43,7.38,4.61,9.39l5.34-8.45ZM384.1,119.85l-5.66-8.24c-2.44,1.68-4.02,4.36-4.3,7.31l9.96.94ZM396.66,88.62l-9.94-1.05s0,.06,0,.1l9.95.96ZM398.74,51.13l9.97-.71-9.97.71ZM375.38,29.49l.71,9.97-.71-9.97ZM340.22,32.01l-.71-9.97c-4.84.35-8.74,4.12-9.23,8.95l9.95,1.02ZM320.57,223.15l-9.95-1.02c-.3,2.94.71,5.86,2.77,7.98,2.06,2.12,4.95,3.22,7.89,3.01l-.71-9.97ZM357.97,220.47l.71,9.97-.71-9.97ZM286.11,58.44l-.71-9.97c-4.84.35-8.74,4.12-9.23,8.95l9.95,1.03ZM298.83,57.53l-.71-9.97.71,9.97ZM308.62,68.36l-9.97.71,9.97-.71ZM303.32,134.4l9.95,1.03h0s-9.95-1.03-9.95-1.03ZM294.57,194.18l9.31,3.66c.05-.12.09-.23.13-.35l-9.44-3.31ZM283.88,202.46l.71,9.97-.71-9.97ZM271.17,203.37l-9.95-1.03c-.3,2.94.71,5.86,2.77,7.99s4.95,3.23,7.89,3.01l-.71-9.97ZM309.93,209.12l-9.1-4.15s-.03.06-.04.09l9.14,4.06ZM323.35,133.97l-9.95-1.01h0s9.95,1.01,9.95,1.01ZM328.55,59.66l-9.97.71,9.97-.71ZM301.71,34.76l-.71-9.97.71,9.97ZM268.79,37.12l-.71-9.97c-4.84.35-8.74,4.12-9.23,8.95l9.95,1.02ZM249.14,228.26l-9.95-1.02c-.3,2.94.71,5.86,2.77,7.98,2.06,2.12,4.95,3.22,7.89,3.01l-.71-9.97ZM282.05,225.9l.71,9.97-.71-9.97ZM212.6,210.57l-.71-9.97.71,9.97ZM203.25,198.96l9.97-.71-9.97.71ZM208.72,131.9l9.95,1.02v-.02s-9.95-1-9.95-1ZM217.91,67.58l9.42,3.34c.04-.12.09-.25.12-.37l-9.55-2.97ZM228.31,58.81l.71,9.97-.71-9.97ZM237.59,69.43l9.97-.71-9.97.71ZM232.81,135.69l9.95,1.04s0-.04,0-.05l-9.95-.99ZM223,201.81l-9.54-2.99c-.02.05-.03.11-.05.16l9.59,2.83ZM238.11,216.77l9.14,4.05s.02-.05.03-.07l-9.17-3.98ZM251.83,138.84l-9.95-1.05h0s9.95,1.05,9.95,1.05ZM257.07,61.52l9.97-.71-9.97.71ZM230.48,36.6l.71,9.97-.71-9.97ZM202.66,54.13l9.14,4.05s.02-.05.03-.07l-9.17-3.98ZM189.2,128.78l-9.95-1.04,9.95,1.04ZM183.67,209.13l9.97-.71-9.97.71ZM210.04,234.32l.71,9.97-.71-9.97ZM144.09,215.48l-.71-9.97.71,9.97ZM134.74,203.86l9.97-.71-9.97.71ZM140.22,136.8l9.95,1.02s0-.01,0-.02l-9.95-1ZM149.4,72.48l9.42,3.34c.04-.12.09-.25.12-.37l-9.55-2.97ZM159.8,63.72l.71,9.97-.71-9.97ZM169.08,74.33l9.97-.71-9.97.71ZM164.3,140.59l9.95,1.04s0-.04,0-.05l-9.95-.99ZM154.49,206.71l-9.54-2.99c-.02.05-.03.11-.05.16l9.59,2.83ZM169.6,221.67l9.14,4.05s.02-.05.03-.07l-9.17-3.98ZM183.32,143.74l-9.95-1.05h0s9.95,1.05,9.95,1.05ZM188.57,66.42l9.97-.71-9.97.71ZM161.97,41.51l.71,9.97-.71-9.97ZM134.15,59.04l9.14,4.05s.02-.05.03-.07l-9.17-3.98ZM120.69,133.69l-9.95-1.04,9.95,1.04ZM115.17,214.04l9.97-.71-9.97.71ZM141.53,239.22l.71,9.97-.71-9.97ZM123.67,47.51l9.95,1.02c.3-2.94-.71-5.86-2.77-7.98s-4.95-3.22-7.89-3.01l.71,9.97ZM91.5,49.81l-.71-9.97c-4.35.31-7.99,3.4-9.01,7.64l9.72,2.33ZM65.21,162.22l.71,9.97c4.68-.33,8.49-3.87,9.18-8.51l-9.89-1.47ZM63.96,162.31l-9.99-.39c-.11,2.84.99,5.6,3.04,7.58s4.83,2.99,7.67,2.79l-.71-9.97ZM61.08,51.98l10-.31c-.08-2.72-1.27-5.29-3.3-7.11-2.02-1.82-4.7-2.74-7.41-2.55l.71,9.97ZM29.66,54.23l-.71-9.97c-4.84.35-8.74,4.12-9.23,8.95l9.95,1.02ZM10,245.37L.05,244.35c-.3,2.94.71,5.86,2.77,7.98,2.06,2.12,4.95,3.22,7.89,3.01l-.71-9.97ZM27.7,244.11l.71,9.97c4.84-.35,8.73-4.12,9.23-8.95l-9.95-1.03ZM42.82,94.65l-.71-9.97c-4.94.35-8.88,4.28-9.26,9.22l9.97.76ZM44.07,94.56l9.99.43c.12-2.85-.97-5.62-3.02-7.6s-4.84-3.01-7.69-2.81l.71,9.97ZM52.39,242.34l-9.98.6c.16,2.67,1.38,5.16,3.39,6.92,2.01,1.76,4.64,2.64,7.3,2.45l-.71-9.97ZM61.87,241.66l.71,9.97c4.28-.31,7.89-3.31,8.97-7.47l-9.68-2.5ZM100.68,90.51l-.71-9.97c-4.54.33-8.29,3.68-9.12,8.16l9.83,1.81ZM101.92,90.42l9.89,1.47c.44-3-.5-6.04-2.56-8.27-2.06-2.22-5.02-3.39-8.05-3.18l.71,9.97ZM86.3,239.91l-9.95-1.03c-.3,2.94.71,5.86,2.77,7.99,2.06,2.12,4.95,3.23,7.9,3.02l-.71-9.97ZM104.01,238.65l.71,9.97c4.84-.35,8.74-4.12,9.23-8.95l-9.95-1.02Z"/>
  <path class="cls-1" d="M104.01,238.65l-17.7,1.27c13.77-133.32,14.6-142.66,15.62-149.5l-1.25.09c-1.26,6.86-3.86,16.07-38.81,151.16l-9.48.68c-7.94-132.02-8.6-141.25-8.32-147.78l-1.25.09c-.52,6.8-1.35,16.14-15.12,149.46l-17.7,1.27L29.66,54.23l31.42-2.25c2.7,86.78,3.33,99.02,2.88,110.33l1.25-.09c1.69-11.4,5.06-23.92,26.29-112.41l32.17-2.3-19.66,191.14Z"/>
  <path class="cls-1" d="M154.49,206.71c2.65-8.46,4.45-14.86,9.81-66.12,4.8-48.47,5.3-59.03,4.78-66.26-.64-8.98-3.3-11.04-9.28-10.61-5.74.41-8.57,2.87-10.4,8.76-2.92,8.23-4.2,14.84-9.18,64.32-4.87,47.47-5.99,59.83-5.48,67.06.55,7.73,1.62,12.17,9.35,11.61,5.98-.43,8.58-2.62,10.4-8.76ZM141.53,239.22c-19.95,1.43-24.96-5.48-26.36-25.18-.79-10.97.17-29.09,5.53-80.35,5.35-51.26,8.06-62.48,13.46-74.65,5.16-11.9,12.61-16.44,27.82-17.53,20.2-1.45,25.24,5.96,26.6,24.91.79,10.97-.17,29.09-5.24,77.32-5.64,54.29-8.56,66.03-13.72,77.93-5.4,12.17-12.86,16.46-28.07,17.55Z"/>
  <path class="cls-1" d="M223,201.81c2.65-8.46,4.45-14.86,9.81-66.12,4.8-48.47,5.3-59.03,4.78-66.26-.64-8.98-3.3-11.04-9.28-10.61-5.74.41-8.57,2.87-10.4,8.76-2.92,8.23-4.2,14.84-9.18,64.32-4.87,47.47-5.99,59.83-5.48,67.06.55,7.73,1.62,12.17,9.35,11.61,5.98-.43,8.58-2.62,10.4-8.76ZM210.04,234.32c-19.95,1.43-24.96-5.48-26.36-25.18-.79-10.97.17-29.09,5.53-80.35,5.35-51.26,8.06-62.48,13.46-74.65,5.16-11.9,12.61-16.44,27.82-17.53,20.2-1.45,25.24,5.96,26.6,24.92.79,10.97-.17,29.09-5.24,77.32-5.64,54.29-8.56,66.03-13.72,77.93-5.4,12.17-12.86,16.46-28.07,17.55Z"/>
  <path class="cls-1" d="M271.17,203.37l12.72-.91c5.98-.43,8.35-2.35,10.69-8.28,2.71-7.71,4.17-15.34,8.76-59.78,4.73-45.96,5.83-58.57,5.3-66.05-.64-8.98-2.32-11.36-9.8-10.83l-12.72.91-14.94,144.94ZM282.05,225.9l-32.92,2.36,19.66-191.14,32.92-2.36c20.45-1.46,25.49,5.95,26.85,24.9.77,10.72-.49,28.11-5.21,74.31-5.43,53.77-8.22,63.75-13.42,75.15-5.18,11.65-12.41,15.68-27.87,16.78Z"/>
  <path class="cls-1" d="M351.17,114.94l11.97-.86c9.23-.66,11.65-5.35,13.69-25.79,1.94-18.44,2.28-24.22,2.03-27.72-.46-6.48-2.21-9.87-8.69-9.4l-12.47.89-6.53,62.88ZM342.47,200.02l14.21-1.02c7.98-.57,10.63-5.52,13.09-30.76,1.51-13.89,1.96-21.7,1.6-26.68-.62-8.73-3.71-9.76-9.19-9.37l-12.97.93-6.74,66.9ZM357.97,220.47l-37.4,2.68,19.66-191.14,35.16-2.52c14.96-1.07,22.05,3.43,23.35,21.64.5,6.98.16,16.28-2.08,37.49-2.01,20.95-5.62,26.47-12.55,31.23l-.14,1.51c4.99,3.15,7.39,5.24,7.98,13.46.45,6.23-.12,15.8-2.13,33.24-3.91,39.88-12.64,51.03-31.84,52.41Z"/>
  <path class="cls-1" d="M432.42,186.82c2.65-8.46,4.45-14.86,9.81-66.12,4.8-48.47,5.3-59.03,4.78-66.26-.64-8.98-3.3-11.04-9.28-10.61-5.74.41-8.57,2.87-10.4,8.76-2.92,8.23-4.2,14.84-9.18,64.32-4.87,47.47-5.99,59.83-5.48,67.06.55,7.73,1.62,12.17,9.35,11.61,5.98-.43,8.58-2.62,10.4-8.76ZM419.45,219.33c-19.95,1.43-24.96-5.48-26.36-25.18-.79-10.97.17-29.09,5.53-80.35,5.35-51.26,8.06-62.48,13.46-74.65,5.16-11.9,12.61-16.44,27.82-17.53,20.2-1.45,25.24,5.96,26.6,24.92.79,10.97-.17,29.09-5.24,77.32-5.64,54.29-8.56,66.03-13.72,77.93-5.4,12.17-12.86,16.46-28.07,17.55Z"/>
  <path class="cls-1" d="M501.02,136.8c2.36-79.12,2.34-86.39,2.55-93.92l-1.5.11c-1.21,7.61-2.69,14.98-17.51,94.99l16.46-1.18ZM518.21,209l-19.95,1.43,1.56-51.74-18.2,1.3-9.29,52.3-20.45,1.46,36.61-192.35,33.66-2.41-3.95,190.02Z"/>
  <path class="cls-1" d="M552.67,106.03l8.98-.64c11.72-.84,14.28-7.04,17.49-35.84,1.73-14.41,2.08-19.95,1.81-23.69-.43-5.98-2.89-8.82-8.87-8.39l-12.47.89-6.94,67.67ZM587.76,204.03l-20.45,1.46c-.61-1.46-.96-2.94-1.16-5.68-.93-12.97,2.93-50.09,1.77-66.3-.5-6.98-2.58-8.09-7.82-7.71l-9.48.68-8.25,80.8-19.7,1.41,19.66-191.14,35.91-2.57c14.46-1.04,21.41,4.98,22.68,22.69.46,6.48.09,15.28-1.85,33.72-1.78,17.17-3.95,25.35-7.21,32.35-2.6,5.7-5.63,8.92-9.26,10.69l-.16,1.26c2.85,1.3,5.13,5.15,5.67,12.63,1.23,17.21-1.58,62.02-1.11,68.5.16,2.24.3,4.24.7,6.22l.07,1Z"/>
  <path class="cls-1" d="M614.67,178.79l12.72-.91c5.98-.43,8.35-2.35,10.69-8.28,2.71-7.71,4.17-15.34,8.76-59.78,4.73-45.95,5.83-58.57,5.3-66.05-.64-8.98-2.32-11.36-9.8-10.83l-12.72.91-14.94,144.94ZM625.56,201.32l-32.92,2.36,19.66-191.14,32.92-2.36c20.45-1.46,25.49,5.95,26.85,24.9.77,10.72-.49,28.11-5.21,74.31-5.43,53.77-8.22,63.75-13.42,75.15-5.18,11.65-12.41,15.68-27.87,16.78Z"/>
</svg>